<?xml version="1.0" encoding="UTF-8" standalone="no"?>
<!-- Created with Inkscape (http://www.inkscape.org/) -->

<svg
   width="63.336975mm"
   height="56.720581mm"
   viewBox="0 0 63.336975 56.720581"
   version="1.1"
   id="svg5"
   xml:space="preserve"
   sodipodi:docname="Atlas.svg"
   inkscape:version="1.2.1 (9c6d41e410, 2022-07-14)"
   inkscape:export-filename="Downloads\Logo\Atlas\Atlas.svg"
   inkscape:export-xdpi="96"
   inkscape:export-ydpi="96"
   xmlns:inkscape="http://www.inkscape.org/namespaces/inkscape"
   xmlns:sodipodi="http://sodipodi.sourceforge.net/DTD/sodipodi-0.dtd"
   xmlns="http://www.w3.org/2000/svg"
   xmlns:svg="http://www.w3.org/2000/svg"><sodipodi:namedview
     id="namedview7"
     pagecolor="#ffffff"
     bordercolor="#000000"
     borderopacity="0.25"
     inkscape:showpageshadow="2"
     inkscape:pageopacity="0.0"
     inkscape:pagecheckerboard="0"
     inkscape:deskcolor="#d1d1d1"
     inkscape:document-units="mm"
     showgrid="false"
     inkscape:zoom="0.71624579"
     inkscape:cx="627.57786"
     inkscape:cy="863.53038"
     inkscape:window-width="1920"
     inkscape:window-height="991"
     inkscape:window-x="-9"
     inkscape:window-y="-9"
     inkscape:window-maximized="1"
     inkscape:current-layer="layer1" /><defs
     id="defs2" /><g
     inkscape:label="Camada 1"
     inkscape:groupmode="layer"
     id="layer1"
     transform="translate(-803.8088,-308.70632)"><path
       style="fill:#410c1f;fill-opacity:1;stroke-width:0.0846667"
       d="m 815.60419,328.30873 c -0.25752,-0.52568 -0.58791,-1.29681 -0.73411,-1.71368 -0.1462,-0.41688 -0.23403,-0.77797 -0.19516,-0.80242 0.0387,-0.0246 0.0407,-0.0592 0.004,-0.0776 -0.0367,-0.0184 -0.15236,-0.29423 -0.2569,-0.61356 -0.10463,-0.31926 -0.25319,-0.84465 -0.33036,-1.16743 -0.0771,-0.32282 -0.11228,-0.60446 -0.0782,-0.6259 0.0342,-0.0214 0.0114,-0.11961 -0.0511,-0.21809 -0.062,-0.0986 -0.0887,-0.28425 -0.0594,-0.4127 0.0295,-0.12824 0.0166,-0.29194 -0.0288,-0.36333 -0.0451,-0.0715 -0.10104,-0.30332 -0.12473,-0.51529 -0.0235,-0.212 -0.0204,-0.43146 0.007,-0.4877 0.0282,-0.0576 0.15239,-0.0634 0.28385,-0.0134 0.20794,0.079 0.23608,0.1175 0.25556,0.34877 0.0117,0.14302 0.0722,0.34035 0.13422,0.43847 0.0617,0.0981 0.0922,0.2189 0.0679,0.268 -0.0241,0.0492 7.8e-4,0.15978 0.0568,0.2456 0.0751,0.11784 0.0901,0.0638 0.0601,-0.21845 -0.022,-0.2062 -0.0917,-0.53365 -0.15513,-0.7276 -0.0634,-0.19399 -0.092,-0.36732 -0.0632,-0.3853 0.0285,-0.0177 -0.0542,-0.1943 -0.18385,-0.39189 -0.20667,-0.31561 -0.21707,-0.36511 -0.082,-0.40763 0.11147,-0.0352 0.12843,-0.0879 0.0621,-0.19346 -0.0502,-0.0798 -0.0636,-0.31848 -0.0291,-0.53045 0.042,-0.26103 0.02,-0.42087 -0.0682,-0.49539 -0.0727,-0.0616 -0.0963,-0.13125 -0.0535,-0.15813 0.0422,-0.0263 0.10302,-0.009 0.13572,0.0396 0.0324,0.0483 0.0515,-0.0339 0.042,-0.18287 -0.0121,-0.18721 0.0217,-0.26641 0.10953,-0.25678 0.0698,0.008 0.17944,-0.0319 0.24338,-0.0884 0.0934,-0.082 0.11239,-0.0717 0.0961,0.0515 -0.0115,0.0844 -0.0599,0.15397 -0.10858,0.15436 -0.0486,-1.8e-4 -0.0588,0.0477 -0.022,0.10582 0.0541,0.0863 0.0886,0.0702 0.19256,-0.0902 0.0696,-0.10726 0.0909,-0.25239 0.0473,-0.32234 -0.0594,-0.0955 -0.11753,-0.0922 -0.23308,0.0139 -0.096,0.0877 -0.19345,0.11095 -0.25858,0.0625 -0.0824,-0.0617 -0.0667,-0.0811 0.0749,-0.091 0.15923,-0.0112 0.16258,-0.0466 0.0306,-0.30854 -0.0815,-0.16295 -0.16419,-0.26501 -0.18259,-0.22733 -0.0185,0.0378 -0.0664,0.0168 -0.10656,-0.0474 -0.0397,-0.064 -0.0291,-0.11624 0.0257,-0.11669 0.0565,-8.2e-4 0.0499,-0.0372 -0.0156,-0.0858 -0.0624,-0.0468 -0.1047,-0.15324 -0.0935,-0.23671 0.0152,-0.11565 -0.008,-0.14688 -0.0966,-0.13171 -0.0857,0.0146 -0.0984,-0.0335 -0.0476,-0.17971 0.0377,-0.10977 0.0938,-0.21527 0.12444,-0.23454 0.0308,-0.0188 0.0737,0.0325 0.0956,0.11488 0.0376,0.14289 0.0404,0.14145 0.0417,-0.0261 0.001,-0.0969 0.0348,-0.19685 0.075,-0.22219 0.0402,-0.0253 0.15193,-0.0283 0.24835,-0.006 0.0963,0.0217 0.20504,0.021 0.24168,-0.002 0.0368,-0.0227 0.0463,-0.0741 0.0219,-0.11349 -0.025,-0.0395 -0.0827,-0.048 -0.12873,-0.0192 -0.046,0.0292 -0.0773,0.0251 -0.0695,-0.009 0.008,-0.034 0.12167,-0.0836 0.25382,-0.10952 0.15329,-0.0309 0.24176,-0.004 0.24545,0.0735 0.005,0.0973 0.0148,0.0914 0.0458,-0.0291 0.0224,-0.0825 0.12012,-0.20574 0.21774,-0.27352 0.11925,-0.0833 0.12952,-0.10798 0.0305,-0.0769 -0.0808,0.0259 -0.14732,0.005 -0.14768,-0.0457 -2.5e-4,-0.0507 -0.0672,-0.0504 -0.14829,10e-4 -0.0813,0.0511 -0.16788,0.0606 -0.19268,0.0212 -0.025,-0.0394 10e-4,-0.10081 0.0581,-0.13655 0.0575,-0.0368 0.0601,-0.12283 0.006,-0.19662 -0.0537,-0.0724 -0.11326,-0.0997 -0.1325,-0.0603 -0.019,0.0394 -0.1177,0.0526 -0.21872,0.0296 -0.101,-0.0229 -0.20174,-0.005 -0.22397,0.04 -0.022,0.0453 -0.0535,0.0609 -0.07,0.0349 -0.0165,-0.0259 -0.0466,-0.19141 -0.0676,-0.36764 -0.0209,-0.17622 0.0862,-0.73946 0.2382,-1.25157 0.15196,-0.51209 0.44582,-1.34141 0.65307,-1.84288 0.20724,-0.5015 0.61018,-1.3347 0.89539,-1.8516 0.28522,-0.51687 0.53973,-0.95309 0.56563,-0.96937 0.0258,-0.0164 0.0759,0.0167 0.1114,0.0728 0.0351,0.0564 0.0452,0.18432 0.0234,0.28419 -0.0293,0.12717 10e-4,0.2051 0.10073,0.25929 0.12502,0.0682 0.14261,0.0455 0.1471,-0.19114 0.003,-0.14775 0.0347,-0.28727 0.0714,-0.30997 0.0369,-0.0227 0.0719,0.0439 0.0798,0.14991 0.008,0.11561 0.0411,0.1743 0.0825,0.14813 0.0378,-0.0242 0.0829,-0.17488 0.0999,-0.33564 l 0.0308,-0.29226 0.23129,0.0879 0.23125,0.0879 0.0485,-0.44566 c 0.0267,-0.24511 0.0742,-0.43981 0.10577,-0.43261 0.0313,0.007 0.0673,0.25669 0.0794,0.55476 0.0122,0.29801 0.0532,0.52254 0.0908,0.49893 0.0372,-0.024 0.0713,-0.1461 0.0755,-0.27224 0.004,-0.12617 0.0428,-0.22202 0.0865,-0.21295 0.0437,0.009 0.0858,0.10644 0.0932,0.21641 0.009,0.13273 0.0384,0.18425 0.0881,0.15321 0.0409,-0.0257 0.0538,-0.0788 0.029,-0.11835 -0.025,-0.0394 -0.0156,-0.0906 0.0219,-0.11349 0.0368,-0.0227 0.13893,-0.0256 0.22744,-0.005 0.13675,0.0307 0.17217,0.008 0.23595,-0.15307 0.0681,-0.17158 0.0887,-0.17628 0.21756,-0.05 0.10279,0.10088 0.19552,0.1078 0.33294,0.0246 0.11181,-0.0679 0.29497,-0.0796 0.44371,-0.0292 0.13932,0.0474 0.25015,0.10028 0.24635,0.11736 -0.004,0.0171 -0.13114,0.0409 -0.28288,0.0532 -0.15173,0.0123 -0.31287,0.0453 -0.35808,0.0734 -0.0454,0.0277 -0.13122,0.014 -0.19106,-0.0305 -0.0598,-0.0448 -0.17342,-0.0407 -0.25224,0.008 -0.10046,0.0632 -0.10939,0.11557 -0.0301,0.17496 0.0624,0.0467 0.26947,0.0562 0.46037,0.0214 0.19086,-0.0353 0.36524,-0.0349 0.38736,4.8e-4 0.0219,0.0351 0.0887,0.0335 0.14769,-0.004 0.0652,-0.0414 0.145,-0.003 0.20324,0.0973 0.0523,0.0908 0.054,0.13476 0.004,0.098 -0.0509,-0.0368 -0.12203,-0.0482 -0.15817,-0.0256 -0.0362,0.0224 -0.0252,0.10576 0.0244,0.18468 0.0495,0.0788 0.0616,0.16126 0.0268,0.18314 -0.0348,0.0218 -0.12881,-0.0202 -0.20889,-0.0937 -0.11971,-0.10965 -0.14595,-0.10686 -0.14709,0.0149 -0.001,0.10222 0.0571,0.16517 0.18645,0.20151 0.10342,0.0287 0.18831,0.10047 0.18878,0.1586 2.9e-4,0.0643 0.0729,0.0603 0.18426,-0.01 0.14993,-0.0943 0.16259,-0.1524 0.0693,-0.31852 -0.0977,-0.17436 -0.0953,-0.18304 0.0183,-0.0614 0.0728,0.0779 0.15966,0.12468 0.19292,0.10376 0.0333,-0.0211 0.0846,0.0803 0.11382,0.22517 0.0437,0.21456 0.0182,0.27464 -0.13784,0.32552 -0.14725,0.0481 -0.16626,0.0808 -0.0816,0.14455 0.0604,0.0451 0.0889,0.12451 0.0634,0.17654 -0.0272,0.0557 -0.0564,0.0426 -0.0713,-0.0322 -0.0138,-0.0696 -0.0809,-0.11558 -0.14934,-0.10208 -0.0684,0.0137 -0.14662,0.0694 -0.17354,0.12482 -0.0269,0.0551 0.0149,0.1599 0.092,0.23288 0.0777,0.073 0.17164,0.11355 0.20882,0.0902 0.0368,-0.0238 0.0678,0.007 0.0684,0.0678 2e-4,0.0767 0.0597,0.0522 0.19407,-0.0795 0.15979,-0.15727 0.20685,-0.16808 0.27302,-0.0634 0.0633,0.10061 0.0871,0.0974 0.11268,-0.0161 0.0258,-0.11276 -0.005,-0.16097 -0.14367,-0.22835 -0.0968,-0.047 -0.18781,-0.10385 -0.202,-0.12641 -0.0139,-0.0227 0.0143,-0.0413 0.0625,-0.0416 0.0486,1.8e-4 0.0979,-0.0738 0.10971,-0.16315 0.0117,-0.0893 10e-4,-0.14975 -0.0236,-0.13426 -0.0247,0.0153 -0.021,-0.077 0.009,-0.20544 0.0296,-0.12829 0.0329,-0.26573 0.008,-0.30517 -0.025,-0.0394 0.0195,-0.11226 0.0983,-0.16183 0.0787,-0.0495 0.16301,-0.0589 0.18701,-0.0208 0.0244,0.0381 -0.006,0.0796 -0.0671,0.0922 -0.0608,0.0132 -0.0974,0.12639 -0.081,0.25313 0.0247,0.19164 0.0709,0.24519 0.27497,0.31798 0.13482,0.0481 0.2775,0.13896 0.31698,0.2017 0.0392,0.0628 0.10137,0.0955 0.13756,0.0728 0.0364,-0.0225 0.10554,-0.0945 0.15419,-0.1593 0.0802,-0.10699 0.068,-0.12394 -0.13153,-0.18235 -0.21548,-0.0635 -0.2154,-0.0659 0.007,-0.14041 0.15733,-0.0526 0.20986,-0.10453 0.17116,-0.16764 -0.0412,-0.0672 -0.0278,-0.0785 0.0494,-0.0417 0.0797,0.0377 0.12205,0.009 0.17218,-0.1177 0.0614,-0.15432 0.0473,-0.16647 -0.17247,-0.15098 -0.16974,0.0118 -0.22327,-0.0156 -0.18449,-0.0947 0.0314,-0.0639 0.14614,-0.0965 0.26952,-0.0766 0.20555,0.0333 0.20866,0.0288 0.0705,-0.10358 -0.1205,-0.11545 -0.11709,-0.14544 0.0203,-0.18111 0.1052,-0.0278 0.14383,-0.077 0.10658,-0.13786 -0.0426,-0.07 -0.0223,-0.0783 0.0799,-0.0318 0.1213,0.0554 0.13841,0.045 0.13945,-0.0852 5.7e-4,-0.0814 0.0405,-0.13919 0.0882,-0.12831 0.0477,0.0109 0.16836,0.14523 0.26819,0.29859 0.0999,0.15329 0.24722,0.29374 0.32743,0.31205 0.0802,0.0188 0.17347,0.0771 0.20716,0.13066 0.0345,0.055 0.012,0.0977 -0.0528,0.0983 -0.0786,3.9e-4 -0.0655,0.0529 0.0418,0.16787 0.0856,0.0919 0.12789,0.18449 0.0938,0.20591 -0.034,0.0214 -0.0932,-0.0115 -0.132,-0.0729 -0.0393,-0.0631 -0.0913,-0.0689 -0.11842,-0.0134 -0.0344,0.0701 -0.0519,0.0455 -0.0611,-0.0861 -0.008,-0.11578 -0.062,-0.20732 -0.14514,-0.24585 -0.11155,-0.0523 -0.13219,-0.0398 -0.13329,0.0779 -10e-4,0.11081 -0.0407,0.11707 -0.19238,0.0305 -0.17137,-0.0976 -0.17385,-0.11213 -0.0252,-0.14188 0.1248,-0.025 0.13285,-0.0405 0.0321,-0.0642 -0.0961,-0.0228 -0.16026,0.015 -0.22775,0.13364 -0.0518,0.0906 -0.0511,0.27737 10e-4,0.41497 0.0525,0.13758 0.065,0.39984 0.0282,0.58273 -0.0369,0.18292 -0.0773,0.40596 -0.0896,0.49566 -0.0119,0.0899 0.005,0.20666 0.0385,0.25993 0.0336,0.0533 0.0503,0.1909 0.0371,0.30589 -0.0232,0.20424 -0.025,0.2049 -0.0788,0.0279 -0.0409,-0.13497 -0.12897,-0.1853 -0.346,-0.1978 -0.16006,-0.009 -0.34325,0.006 -0.40703,0.0347 -0.0635,0.0285 -0.15383,0.0805 -0.2001,0.1163 -0.0462,0.036 -0.0459,0.1258 10e-4,0.20051 0.047,0.0747 0.0487,0.18468 0.004,0.24456 -0.0548,0.073 -0.10968,0.0642 -0.16652,-0.0263 -0.0467,-0.0743 -0.0539,-0.17528 -0.016,-0.22432 0.0538,-0.0697 0.0374,-0.0974 -0.0749,-0.12655 -0.0919,-0.0237 -0.14784,-0.0946 -0.15496,-0.19552 -0.006,-0.087 -0.0537,-0.1772 -0.10577,-0.20051 -0.0521,-0.0233 -0.15788,-0.0286 -0.23502,-0.0126 -0.0771,0.0165 -0.16669,0.0844 -0.19937,0.15002 -0.0458,0.0937 -0.0179,0.14611 0.12607,0.23653 0.14392,0.0905 0.16856,0.0878 0.11094,-0.0126 -0.0407,-0.0706 -0.0373,-0.15129 0.006,-0.17881 0.0505,-0.0312 0.0986,0.0213 0.13029,0.14312 0.028,0.1063 0.0819,0.25226 0.12074,0.32412 0.039,0.0716 0.0447,0.14675 0.0143,0.16608 -0.0308,0.0198 -0.0144,0.10201 0.0372,0.18335 0.0512,0.0813 0.0987,0.23283 0.10616,0.33605 0.007,0.10344 -0.0296,0.18831 -0.0817,0.1887 -0.0522,4.5e-4 -0.13782,-0.10457 -0.19021,-0.23325 -0.0523,-0.12877 -0.10942,-0.22514 -0.1266,-0.21436 -0.017,0.0106 0.0159,0.20365 0.074,0.42856 0.0575,0.22501 0.19635,0.57641 0.30795,0.78097 0.13461,0.24679 0.23115,0.3544 0.2868,0.31974 0.0459,-0.0292 0.11933,-0.0441 0.16264,-0.0343 0.0435,0.01 0.0816,0.0983 0.085,0.19659 0.005,0.14012 -0.0107,0.15687 -0.0721,0.0779 -0.0432,-0.0553 -0.0422,0.0108 0.002,0.14863 0.0442,0.13721 0.13188,0.3395 0.19461,0.44961 0.0903,0.15862 0.13287,0.17498 0.20505,0.0787 0.069,-0.092 0.0981,-0.0854 0.12037,0.0277 0.0194,0.0974 0.0654,0.12618 0.1347,0.0828 0.0577,-0.0368 0.0715,-0.11998 0.0301,-0.18565 -0.0416,-0.0656 -0.0423,-0.11211 -0.003,-0.10298 0.0398,0.009 0.10337,0.1116 0.14096,0.22805 0.0374,0.11638 0.0355,0.23239 -0.006,0.25821 -0.041,0.0257 -0.0749,0.002 -0.0753,-0.0527 -6.6e-4,-0.0547 -0.0353,-0.0779 -0.0766,-0.0518 -0.0417,0.026 -0.0533,0.0897 -0.0255,0.14107 0.0274,0.0514 0.0925,0.17941 0.14375,0.28469 0.0513,0.10523 0.18044,0.27 0.28751,0.36576 0.14875,0.13346 0.17748,0.20524 0.12245,0.30613 -0.0533,0.0977 -0.0365,0.14346 0.065,0.17671 0.0754,0.0248 0.19857,0.13482 0.27375,0.24484 0.075,0.11011 0.17789,0.32039 0.22802,0.46762 0.0844,0.24705 0.10505,0.25894 0.26966,0.15545 0.15143,-0.0952 0.18997,-0.082 0.25664,0.0887 0.0455,0.11651 0.0294,0.23161 -0.0387,0.27435 -0.0858,0.0539 -0.076,0.13474 0.0366,0.30208 0.0849,0.12542 0.20518,0.29992 0.26848,0.38713 0.0632,0.0873 0.13305,0.12156 0.15539,0.0761 0.0224,-0.0456 -0.027,-0.16576 -0.11062,-0.2671 -0.0833,-0.10141 -0.15183,-0.24713 -0.15227,-0.32403 -0.001,-0.1168 0.0349,-0.13323 0.21772,-0.10115 0.21256,0.0374 0.21505,0.0305 0.0874,-0.23707 -0.0973,-0.20395 -0.1497,-0.25113 -0.20231,-0.18104 -0.0389,0.0521 -0.0886,0.0663 -0.1108,0.031 -0.0218,-0.035 -0.0523,-0.12419 -0.0667,-0.19868 -0.0151,-0.0742 0.03,-0.14632 0.0994,-0.15997 0.0693,-0.0138 0.15432,0.02 0.18886,0.075 0.0345,0.055 0.0951,0.0795 0.13442,0.0547 0.0395,-0.025 0.0429,-0.0907 0.008,-0.14661 -0.0349,-0.0561 -0.10923,-0.0905 -0.16462,-0.077 -0.0555,0.0135 -0.13787,-0.0171 -0.1832,-0.0682 -0.0453,-0.0509 -0.14527,-0.14326 -0.22202,-0.20502 -0.13281,-0.10687 -0.12859,-0.10892 0.0881,-0.0433 0.12513,0.0381 0.31443,0.0638 0.42056,0.0576 0.10611,-0.006 0.15423,0.0144 0.10706,0.0458 -0.0473,0.0309 -0.037,0.0937 0.0225,0.13872 0.0598,0.0447 0.15378,0.0533 0.20871,0.0188 0.055,-0.0344 0.14917,0.007 0.20956,0.0933 0.0823,0.11763 0.0983,0.11989 0.0637,0.01 -0.0257,-0.0803 0.0161,-0.18513 0.092,-0.23287 0.0916,-0.0575 0.16939,-0.037 0.23081,0.0611 0.0511,0.0813 0.0481,0.14792 -0.007,0.14837 -0.0548,6.8e-4 -0.0801,0.0318 -0.0566,0.0691 0.024,0.0372 0.10663,0.0556 0.18437,0.0404 0.0777,-0.0157 0.15866,-0.0629 0.17964,-0.10586 0.0214,-0.0435 -0.0452,-0.14068 -0.15001,-0.21991 -0.1035,-0.0781 -0.18272,-0.1661 -0.17603,-0.19553 0.007,-0.0295 0.0969,-0.0128 0.20059,0.0378 0.10369,0.0503 0.22904,0.0658 0.27871,0.0345 0.0498,-0.031 0.13329,0.0117 0.18593,0.0953 0.0795,0.1266 0.10418,0.12596 0.14661,-0.004 0.0415,-0.12615 0.0736,-0.13871 0.1702,-0.0663 0.0821,0.0616 0.15779,0.0452 0.24329,-0.0522 0.0683,-0.078 0.13518,-0.24426 0.14872,-0.36962 0.0152,-0.14224 -0.0345,-0.29024 -0.13264,-0.39369 -0.13097,-0.13817 -0.13163,-0.20757 -0.005,-0.41635 0.12909,-0.21206 0.16236,-0.2349 0.21669,-0.1485 0.0351,0.0562 0.0965,0.0817 0.13588,0.0569 0.0394,-0.025 0.11799,0.027 0.17471,0.11523 0.10307,0.16019 0.10307,0.16019 0.13048,-0.10706 0.0152,-0.14703 -0.006,-0.32254 -0.0475,-0.39001 -0.0643,-0.1059 -0.0379,-0.13124 0.19563,-0.18491 0.19968,-0.0463 0.25557,-0.0299 0.21321,0.0609 -0.0474,0.10136 -0.0307,0.12354 0.0946,0.12593 0.13006,0.003 0.13395,0.0145 0.0273,0.0829 -0.0686,0.044 -0.0984,0.12188 -0.0662,0.17315 0.0325,0.0509 0.12153,0.10759 0.19869,0.12506 0.10889,0.0248 0.113,0.049 0.0183,0.10854 -0.067,0.0423 -0.13774,0.0513 -0.1571,0.0207 -0.0198,-0.0305 -0.12789,-0.007 -0.24106,0.0538 -0.1784,0.0955 -0.18186,0.10969 -0.0278,0.10437 0.17199,-0.006 0.17581,4e-4 0.10837,0.17051 -0.0384,0.097 -0.10407,0.17663 -0.14574,0.17697 -0.0416,4.1e-4 -0.0541,0.0351 -0.0281,0.0765 0.0261,0.0417 0.0776,0.0571 0.11422,0.0343 0.0368,-0.0227 0.15216,-0.0222 0.2567,10e-4 0.10465,0.0238 0.2016,0.10116 0.2156,0.17193 0.0139,0.0707 0.10002,0.14585 0.19178,0.16655 0.0917,0.0206 0.201,0.0161 0.24322,-0.0105 0.0423,-0.0264 0.0587,-0.0771 0.037,-0.11214 -0.022,-0.0352 -0.10037,-0.052 -0.1737,-0.0377 -0.0733,0.0151 -0.15557,-0.009 -0.18246,-0.0522 -0.0268,-0.0432 -0.004,-0.0785 0.0505,-0.079 0.0546,-7.4e-4 0.0578,-0.0673 0.007,-0.14835 -0.0524,-0.0833 -0.13953,-0.11819 -0.20031,-0.0799 -0.059,0.0375 -0.14254,0.0108 -0.18529,-0.0585 -0.0608,-0.0987 -0.0508,-0.11347 0.0454,-0.0675 0.068,0.0325 0.11508,0.0191 0.10498,-0.0298 -0.009,-0.0485 0.10457,-0.19707 0.25471,-0.33033 0.23376,-0.20744 0.27698,-0.22197 0.30086,-0.10094 0.0157,0.0777 0.0642,0.11856 0.10853,0.0906 0.0504,-0.0312 0.10628,0.0272 0.14835,0.15675 0.0512,0.15689 0.0962,0.18962 0.18293,0.13497 0.0635,-0.0395 0.0866,-0.11811 0.0512,-0.17405 -0.0349,-0.056 -0.0336,-0.14324 0.003,-0.19425 0.0464,-0.0642 0.032,-0.096 -0.0474,-0.10356 -0.0627,-0.006 -0.17044,-0.0542 -0.23928,-0.10718 -0.0688,-0.053 -0.10027,-0.11193 -0.0699,-0.13102 0.0301,-0.0196 0.10926,-0.0224 0.17551,-0.007 0.0829,0.0183 0.0635,-0.0395 -0.0611,-0.1866 -0.0999,-0.11769 -0.23402,-0.21799 -0.29822,-0.22277 -0.0662,-0.005 -0.0111,-0.0586 0.12864,-0.12424 0.19145,-0.0901 0.24209,-0.16167 0.23064,-0.32544 -0.0108,-0.15474 -0.0601,-0.23563 -0.1865,-0.30785 -0.0944,-0.0539 -0.18576,-0.12012 -0.20279,-0.1473 -0.017,-0.0271 0.0428,-0.0396 0.13253,-0.0279 0.13475,0.0179 0.14986,-1.7e-4 0.0855,-0.10268 -0.0654,-0.10389 -0.0297,-0.14442 0.21923,-0.24781 0.2466,-0.10251 0.26916,-0.12779 0.13246,-0.14718 -0.10646,-0.0151 -0.21689,-0.12388 -0.31162,-0.30638 -0.10082,-0.19481 -0.1122,-0.30447 -0.036,-0.35243 0.061,-0.0384 0.22284,-0.0295 0.35979,0.0193 0.13697,0.049 0.28261,0.0441 0.32364,-0.0108 0.0411,-0.0549 0.20879,-0.13954 0.37238,-0.189 0.21408,-0.0645 0.29293,-0.11881 0.28056,-0.19429 -0.0104,-0.0654 0.0783,-0.0762 0.23724,-0.0285 0.13992,0.0418 0.24048,0.0462 0.2235,0.01 -0.0168,-0.0368 -0.0827,-0.13534 -0.14527,-0.21977 -0.0624,-0.0844 -0.0761,-0.17726 -0.0282,-0.20727 0.0583,-0.0371 0.12387,0.0347 0.20318,0.22228 0.0684,0.16086 0.14678,0.25777 0.18836,0.23164 0.0392,-0.0249 0.0718,-9.2e-4 0.0721,0.0535 7.4e-4,0.0551 0.0361,0.0517 0.0798,-0.007 0.0473,-0.0628 0.18058,-0.0623 0.33161,0.002 0.13895,0.0593 0.35679,0.13566 0.48415,0.16989 0.1927,0.0516 0.20655,0.0673 0.0827,0.0917 -0.082,0.0159 -0.12787,0.0629 -0.10231,0.10359 0.0257,0.0409 0.11919,0.11555 0.20794,0.16616 0.0891,0.0508 0.23664,0.0447 0.32926,-0.0134 0.0923,-0.0579 0.231,-0.0849 0.30824,-0.0595 0.0772,0.0252 0.13256,0.0798 0.12326,0.12094 -0.009,0.0413 -0.0954,0.0456 -0.19055,0.011 -0.14809,-0.055 -0.17391,-0.043 -0.17632,0.0821 -0.002,0.0904 0.0523,0.17785 0.14152,0.22882 0.0794,0.0453 0.15591,0.14005 0.16979,0.21075 0.0139,0.0707 0.0878,0.11612 0.16395,0.10104 0.0868,-0.0169 0.11372,-0.0669 0.0725,-0.13257 -0.0368,-0.0576 -0.004,-0.14461 0.073,-0.19273 0.0764,-0.0481 0.18043,-0.0671 0.23087,-0.0425 0.0504,0.0247 0.13537,0.005 0.18862,-0.044 0.063,-0.0575 0.21129,-0.004 0.42383,0.15129 0.17981,0.13194 0.38095,0.22656 0.44703,0.21027 0.1023,-0.0252 0.0941,-0.0384 -0.0557,-0.0879 -0.0967,-0.0321 -0.16754,-0.0947 -0.15729,-0.13948 0.0102,-0.0449 0.0622,-0.0618 0.11538,-0.0383 0.0533,0.0239 0.17082,0.028 0.26117,0.009 0.13855,-0.0293 0.18181,0.0128 0.27657,0.26887 0.0618,0.16686 0.17577,0.39345 0.25282,0.50379 0.0775,0.11005 0.17448,0.20661 0.21599,0.21424 0.0415,0.007 0.0644,-0.0356 0.051,-0.0958 -0.0131,-0.0603 4.9e-4,-0.12537 0.0305,-0.14454 0.0306,-0.0187 0.19031,-0.009 0.35539,0.0218 0.16501,0.0315 0.32096,0.0895 0.34634,0.12999 0.0255,0.0403 0.15999,0.0756 0.29923,0.078 0.13918,0.003 0.27821,0.0448 0.30897,0.0937 0.0334,0.0526 0.14146,0.0308 0.26601,-0.0538 0.11547,-0.0785 0.19801,-0.16208 0.18331,-0.18567 -0.0153,-0.0234 -0.1214,-0.0319 -0.23693,-0.0194 -0.1156,0.0128 -0.16915,-0.005 -0.11898,-0.0405 0.0503,-0.0351 0.17461,-0.07 0.2765,-0.0772 0.15495,-0.0109 0.17026,-0.0371 0.0936,-0.15887 -0.0524,-0.0832 -0.0444,-0.17556 0.0181,-0.21491 0.0603,-0.038 0.15875,-0.0323 0.21863,0.0126 0.066,0.0495 0.20101,0.0236 0.34331,-0.0657 0.12894,-0.081 0.30494,-0.12434 0.39132,-0.0957 0.13103,0.0428 0.13177,0.0673 0.005,0.14703 -0.0837,0.0525 -0.13322,0.12569 -0.11007,0.16254 0.0227,0.0369 0.12999,0.0457 0.23753,0.0199 0.10747,-0.0262 0.25265,-0.0959 0.32238,-0.15591 0.11178,-0.0957 0.12434,-0.0865 0.10283,0.0739 -0.0141,0.10708 0.0156,0.1851 0.0732,0.18869 0.0537,0.003 0.1832,0.0524 0.28782,0.11009 0.10471,0.0572 0.20483,0.127 0.22252,0.15515 0.0176,0.0283 -0.0308,0.0368 -0.10792,0.0192 -0.0769,-0.0179 -0.1652,-0.0162 -0.19593,0.003 -0.0309,0.0188 0.0692,0.11015 0.22187,0.20182 0.2348,0.14099 0.3035,0.14251 0.44428,0.0103 0.12727,-0.11956 0.19776,-0.13032 0.29972,-0.0439 0.0732,0.062 0.14619,0.17837 0.1621,0.25862 0.0163,0.0802 1.4e-4,0.16409 -0.0352,0.18622 -0.0352,0.022 -0.0938,-0.007 -0.13017,-0.0649 -0.0399,-0.0644 -0.098,-0.0627 -0.1477,0.004 -0.054,0.0721 -0.10907,0.0651 -0.163,-0.0206 -0.0507,-0.0805 -0.0902,-0.088 -0.10473,-0.0197 -0.0128,0.0602 0.0353,0.25282 0.10671,0.42789 0.10715,0.26213 0.13688,0.29194 0.16854,0.16905 0.0211,-0.082 0.0728,-0.16941 0.11511,-0.1942 0.042,-0.0251 0.18679,-0.001 0.32144,0.0527 0.17942,0.0717 0.2398,0.13542 0.22608,0.23897 -0.01,0.0778 0.0162,0.14901 0.0581,0.15864 0.0421,0.01 0.0419,0.0396 -5.1e-4,0.0664 -0.0428,0.0266 -0.10597,0.028 -0.14069,0.002 -0.0346,-0.0261 -0.15731,-0.0182 -0.27259,0.0176 -0.16508,0.0506 -0.0784,0.089 0.40817,0.18068 0.44974,0.0847 0.62449,0.0815 0.64246,-0.0121 0.0173,-0.0906 -0.008,-0.12157 -0.0856,-0.105 -0.0608,0.0121 -0.12881,-0.006 -0.15148,-0.0426 -0.0224,-0.0362 0.004,-0.0945 0.0602,-0.12948 0.0561,-0.0349 0.0898,-0.11184 0.0755,-0.17062 -0.0151,-0.0633 0.13821,-0.0578 0.37694,0.013 0.22165,0.0659 0.4441,0.094 0.49432,0.0624 0.0503,-0.0312 0.10126,-0.13318 0.11359,-0.22565 0.0162,-0.12162 0.0575,-0.16018 0.14978,-0.13914 0.07,0.0162 0.19794,0.14002 0.28402,0.27568 0.0962,0.1517 0.12192,0.26844 0.0666,0.30344 -0.0576,0.0368 -0.0255,0.16034 0.0894,0.34375 0.12307,0.19575 0.14848,0.3066 0.0811,0.34888 -0.0542,0.0342 -0.10849,0.13567 -0.12041,0.22569 -0.0119,0.0899 -0.051,0.18178 -0.0863,0.20422 -0.0355,0.0221 -0.0623,-0.0729 -0.0595,-0.21167 0.004,-0.24203 -0.004,-0.25046 -0.20458,-0.20967 -0.11502,0.0239 -0.22758,0.0782 -0.24977,0.12205 -0.0224,0.0435 -0.0412,0.027 -0.0416,-0.0364 -7.5e-4,-0.07 -0.0816,-0.0987 -0.20489,-0.0729 -0.11415,0.0236 -0.24168,-0.0167 -0.28944,-0.0922 -0.0469,-0.0744 -0.17839,-0.12119 -0.29204,-0.10423 -0.11376,0.0163 -0.25697,-0.0117 -0.31854,-0.0639 -0.0616,-0.0521 -0.17968,-0.0796 -0.26251,-0.0607 -0.0827,0.0191 -0.21221,0.0431 -0.28775,0.0542 -0.12213,0.018 -0.1163,0.0271 0.0523,0.0834 0.10423,0.0351 0.23029,0.12761 0.27986,0.2065 0.0495,0.0788 0.13905,0.13159 0.1988,0.11727 0.0691,-0.0163 0.0668,-0.0575 -0.007,-0.11215 -0.0635,-0.0474 -0.0782,-0.10924 -0.0334,-0.13743 0.0447,-0.0286 0.13061,-0.0149 0.19046,0.0303 0.0599,0.0449 0.16889,0.0438 0.24219,-0.002 0.10802,-0.0679 0.14122,-0.0464 0.17503,0.11406 0.0303,0.1426 0.0891,0.20275 0.21289,0.21427 0.15124,0.0144 0.16423,0.0333 0.11078,0.15941 -0.0331,0.0787 -0.18768,0.20918 -0.34353,0.29017 -0.17041,0.0883 -0.25444,0.17064 -0.2115,0.20479 0.0396,0.0317 0.15192,0.006 0.2497,-0.0576 0.12993,-0.084 0.18939,-0.0784 0.22095,0.0216 0.0273,0.0876 -0.0235,0.1684 -0.14258,0.22625 -0.11833,0.0574 -0.16251,0.12673 -0.12189,0.19127 0.0348,0.0557 -0.003,0.14334 -0.0855,0.1949 -0.12832,0.0806 -0.16126,0.0597 -0.237,-0.151 -0.0485,-0.13461 -0.10647,-0.23311 -0.12852,-0.21926 -0.0224,0.0138 -0.0166,0.16804 0.0124,0.34229 0.0384,0.23057 0.008,0.34544 -0.11139,0.42201 -0.14499,0.0936 -0.12972,0.10179 0.13501,0.0744 0.18829,-0.0198 0.30805,0.0154 0.32362,0.0943 0.017,0.0874 0.0798,0.0906 0.20745,0.0103 0.10046,-0.0632 0.34215,-0.11945 0.53697,-0.12481 0.34394,-0.01 0.35455,-0.0161 0.36788,-0.20521 0.007,-0.10732 -0.0235,-0.21317 -0.0681,-0.23531 -0.0451,-0.0221 -0.0266,-0.0405 0.0412,-0.0411 0.0707,-8e-4 0.1493,0.0796 0.18483,0.18883 0.0409,0.12532 0.10676,0.18104 0.19472,0.16356 0.0729,-0.0149 0.15184,0.004 0.17506,0.0412 0.0238,0.0368 -0.0387,0.0994 -0.13785,0.13866 -0.0989,0.0395 -0.12776,0.065 -0.0636,0.0577 0.0641,-0.007 0.16289,0.0545 0.2197,0.13799 0.0571,0.0833 0.0943,0.10115 0.0831,0.0395 -0.0107,-0.0619 0.009,-0.13091 0.0452,-0.15375 0.0362,-0.0224 0.12795,0.0576 0.20393,0.17854 0.11939,0.18982 0.1142,0.22604 -0.0401,0.26614 -0.12143,0.0312 -0.18258,0.10768 -0.19178,0.23885 -0.0117,0.16615 -0.0505,0.20027 -0.28672,0.24806 -0.15033,0.0302 -0.25811,0.0796 -0.23984,0.10857 0.0181,0.0293 0.12797,0.0425 0.24337,0.0291 0.11547,-0.0129 0.27273,-0.0406 0.34952,-0.0607 0.0978,-0.0253 0.16389,0.0254 0.22055,0.17043 0.0443,0.11396 0.0579,0.22171 0.0285,0.23995 -0.0289,0.0179 0.0308,0.1487 0.13217,0.29038 0.16889,0.23557 0.22282,0.25256 0.63528,0.19978 0.24788,-0.0317 0.47929,-0.0948 0.51424,-0.13983 0.0349,-0.0452 0.12274,-0.0263 0.1951,0.0409 0.0723,0.0679 0.11455,0.19902 0.0932,0.29167 -0.0208,0.0926 -0.0567,0.13881 -0.0794,0.10284 -0.0224,-0.0361 -0.14432,-0.0514 -0.27048,-0.0345 -0.1262,0.0168 -0.2663,0.08 -0.31153,0.1398 -0.045,0.06 -0.046,0.12692 -0.002,0.14857 0.0441,0.0216 0.0232,0.0781 -0.0466,0.12577 -0.11587,0.0787 -0.11175,0.0838 0.0456,0.0538 0.15415,-0.0287 0.16249,-0.02 0.0811,0.0889 -0.0502,0.0669 -0.15125,0.13355 -0.2245,0.14829 -0.0733,0.0151 -0.15157,-0.002 -0.17368,-0.0377 -0.022,-0.0353 -0.008,-0.0842 0.0311,-0.10917 0.0394,-0.025 0.0326,-0.10719 -0.0155,-0.18328 -0.0477,-0.076 -0.0689,-0.21722 -0.0469,-0.31373 0.0354,-0.15613 0.0201,-0.1703 -0.14013,-0.1287 -0.12852,0.0326 -0.19529,-0.001 -0.23302,-0.12108 -0.0295,-0.092 -0.13437,-0.22881 -0.23318,-0.30386 -0.0992,-0.0748 -0.28597,-0.14866 -0.4151,-0.16417 -0.12915,-0.0154 -0.2837,0.0243 -0.34366,0.0872 -0.0599,0.0638 -0.0903,0.14539 -0.0676,0.18148 0.0224,0.0362 0.15476,0.14562 0.29351,0.24333 0.16688,0.11752 0.24332,0.21696 0.22593,0.29351 -0.0178,0.0765 0.0136,0.11557 0.0929,0.11493 0.0657,-4.7e-4 0.11904,-0.0599 0.11834,-0.13276 -9.6e-4,-0.0725 -0.0661,-0.16885 -0.14536,-0.21423 -0.0794,-0.0453 -0.1569,-0.14527 -0.17205,-0.22224 -0.0155,-0.0769 -0.0635,-0.11732 -0.10699,-0.0901 -0.0437,0.027 -0.0977,0.0206 -0.12017,-0.015 -0.0222,-0.0359 0.0344,-0.0887 0.1261,-0.11759 0.0921,-0.0295 0.20483,0.008 0.25181,0.0822 0.0466,0.0742 0.11718,0.11472 0.15655,0.09 0.0394,-0.025 0.12311,0.0366 0.18579,0.1364 0.0627,0.0997 0.0773,0.23044 0.0326,0.29027 -0.0449,0.0599 -0.0552,0.1507 -0.0231,0.20198 0.0357,0.0576 -0.005,0.11307 -0.10592,0.14507 -0.13841,0.0437 -0.14265,0.10313 -0.0264,0.37601 0.0764,0.17808 0.10484,0.34502 0.0644,0.37042 -0.0404,0.0255 0.0168,0.0717 0.12739,0.10281 0.11054,0.0314 0.2632,0.15531 0.33914,0.27614 0.076,0.12083 0.10528,0.26348 0.065,0.31711 -0.0402,0.0536 0.006,0.30475 0.10199,0.55799 0.0962,0.25325 0.21489,0.4797 0.26286,0.50357 0.049,0.0239 0.0223,0.0687 -0.0621,0.10194 -0.0984,0.0382 -0.23688,-0.0243 -0.40206,-0.18185 -0.13864,-0.13238 -0.31664,-0.27226 -0.3955,-0.31092 -0.0789,-0.0386 -0.24238,-0.0309 -0.36333,0.0177 -0.12077,0.0486 -0.20417,0.11265 -0.18492,0.14328 0.0188,0.0308 0.0815,0.0445 0.13796,0.031 0.073,-0.0181 0.0995,0.0472 0.0906,0.22363 -0.0123,0.2488 -0.0123,0.2488 -0.11254,0.0896 -0.0667,-0.10609 -0.14091,-0.13107 -0.22203,-0.0748 -0.0728,0.0505 -0.0768,0.0764 -0.01,0.0642 0.0619,-0.0107 0.12878,0.006 0.14883,0.0377 0.0204,0.0318 -0.003,0.11112 -0.0517,0.17614 -0.0486,0.0649 -0.15152,0.10976 -0.22839,0.0999 -0.0953,-0.0126 -0.13981,0.0145 -0.13916,0.084 8.7e-4,0.0562 0.0815,0.14824 0.17999,0.20444 0.13768,0.0785 0.16665,0.12784 0.12472,0.21318 -0.0427,0.0871 -0.0164,0.12373 0.12168,0.1702 0.097,0.0322 0.29471,0.0869 0.43969,0.1206 0.14496,0.0337 0.28661,0.0979 0.31477,0.14271 0.0285,0.0446 0.10726,0.0453 0.17588,10e-4 0.1067,-0.0683 0.10281,-0.0801 -0.0261,-0.082 -0.12001,-0.002 -0.11459,-0.0252 0.0268,-0.11676 0.14112,-0.091 0.1465,-0.11536 0.0268,-0.11675 -0.13317,-0.002 -0.13799,-0.0103 -0.0407,-0.0729 0.0783,-0.0504 0.16005,0.003 0.28067,0.18328 l 0.1704,0.25416 -0.30113,0.12815 c -0.16554,0.0706 -0.37348,0.1446 -0.46204,0.16449 -0.10925,0.0246 -0.12301,0.0455 -0.0431,0.0647 0.0649,0.0156 0.27443,-0.009 0.46567,-0.0547 0.34565,-0.0826 0.34662,-0.0819 0.15204,0.0751 -0.10774,0.087 -0.20286,0.23764 -0.2115,0.33463 -0.0146,0.16337 -0.0218,0.16722 -0.0966,0.0528 -0.0443,-0.0685 -0.12951,-0.0936 -0.18856,-0.0569 -0.0665,0.042 -0.065,0.13516 0.004,0.24536 0.0843,0.13407 0.20142,0.16965 0.47665,0.14496 0.32983,-0.0295 0.37318,-0.0524 0.45111,-0.23775 0.0627,-0.14875 0.18258,-0.24704 0.43782,-0.35879 0.19331,-0.0847 0.39268,-0.21458 0.4428,-0.28903 0.0503,-0.0742 0.12118,-0.15913 0.15764,-0.18866 0.0363,-0.0298 0.11096,-0.0351 0.16555,-0.0123 0.062,0.0256 0.0764,0.004 0.0386,-0.0581 -0.0486,-0.0791 -0.0277,-0.0949 0.1,-0.078 0.0883,0.0115 0.24842,0.11603 0.3556,0.23182 0.13473,0.14553 0.21838,0.17916 0.27108,0.10885 0.0421,-0.056 0.0989,-0.0656 0.12622,-0.022 0.027,0.0438 -0.0469,0.14018 -0.16514,0.21455 -0.11831,0.0743 -0.19858,0.16134 -0.17846,0.19334 0.0204,0.0319 0.14458,0.0869 0.27667,0.12187 0.13217,0.0347 0.27255,0.11538 0.31225,0.17842 0.0394,0.0632 0.0919,0.0745 0.11594,0.0255 0.0241,-0.0492 0.0653,-0.0552 0.0916,-0.0138 0.0261,0.0418 0.0972,0.0449 0.15752,0.007 0.0603,-0.038 0.15858,-0.0323 0.21818,0.0122 0.0598,0.0448 0.12614,0.0453 0.14771,10e-4 0.0215,-0.0441 0.0609,-0.0454 0.0871,-0.004 0.026,0.0417 0.10158,0.042 0.16751,6.8e-4 0.0658,-0.0417 0.14518,-0.1658 0.17628,-0.27636 0.0338,-0.12027 0.0774,-0.16779 0.10858,-0.11827 0.0289,0.0454 0.10377,0.0502 0.16723,0.0103 0.0695,-0.0436 0.0747,-0.1027 0.0131,-0.14892 -0.056,-0.042 -0.0748,-0.17224 -0.0423,-0.28893 0.0329,-0.11675 0.0413,-0.24158 0.0189,-0.27724 -0.0222,-0.0358 -0.0584,-0.0289 -0.0799,0.0155 -0.0215,0.0441 -0.0916,0.0405 -0.15523,-0.007 -0.0661,-0.0495 -0.15086,-0.0404 -0.19706,0.0214 -0.0446,0.0595 -0.10075,0.0769 -0.12485,0.0385 -0.0244,-0.038 0.0112,-0.10742 0.0783,-0.15393 0.0668,-0.0468 0.0735,-0.0761 0.0141,-0.0656 -0.0591,0.0101 -0.11875,-0.0386 -0.1326,-0.10877 -0.0138,-0.0703 -0.0585,-0.10661 -0.10032,-0.0805 -0.0413,0.0259 -0.0747,0.10025 -0.0742,0.16505 4.8e-4,0.0811 -0.0433,0.0852 -0.14049,0.0137 -0.11202,-0.0828 -0.12706,-0.0794 -0.0726,0.016 0.0385,0.0661 2.8e-4,0.1925 -0.0836,0.28011 l -0.15249,0.15927 0.31085,0.0529 0.31084,0.0528 -0.24135,0.0539 c -0.13281,0.0294 -0.22716,0.0773 -0.21003,0.10569 0.0169,0.0292 -0.0301,0.024 -0.10549,-0.0111 -0.0914,-0.0426 -0.11876,-0.0334 -0.082,0.0261 0.0308,0.0495 0.007,0.12066 -0.0522,0.15788 -0.059,0.0375 -0.12523,0.0396 -0.14704,0.005 -0.0218,-0.0347 -0.0152,-0.13564 0.0135,-0.22447 0.0291,-0.0889 0.01,-0.19408 -0.0431,-0.23377 -0.0541,-0.0404 -0.0422,-0.1752 0.0276,-0.3068 l 0.12385,-0.23465 -0.24047,0.19877 c -0.18778,0.15531 -0.26408,0.17667 -0.34901,0.0969 -0.0595,-0.056 -0.0937,-0.15832 -0.0754,-0.22742 0.0181,-0.0691 0.081,-0.13722 0.13969,-0.15143 0.0585,-0.0141 0.0736,-0.0782 0.034,-0.14171 -0.0397,-0.0638 -0.036,-0.16475 0.009,-0.2246 0.0448,-0.0598 0.0521,-0.15569 0.0162,-0.21294 -0.0356,-0.0575 -0.0831,-0.068 -0.10477,-0.0238 -0.0215,0.044 -0.0881,0.0433 -0.14767,-10e-4 -0.0597,-0.0448 -0.0791,-0.0998 -0.0433,-0.12229 0.0361,-0.0223 0.1054,-0.0213 0.15456,0.003 0.0492,0.0241 0.15817,5.7e-4 0.24228,-0.052 0.14972,-0.0942 0.14894,-0.096 -0.0522,-0.11352 -0.18909,-0.0161 -0.17996,-0.0306 0.11619,-0.18614 0.23511,-0.12342 0.31925,-0.21012 0.31339,-0.32358 -0.007,-0.13927 0.0156,-0.15073 0.2264,-0.11336 0.12884,0.0225 0.26141,0.0846 0.29475,0.13767 0.0334,0.0528 0.095,0.0746 0.13715,0.0483 0.0436,-0.0281 0.0188,-0.0969 -0.0592,-0.16284 -0.0778,-0.0657 -0.10304,-0.13526 -0.0591,-0.16284 0.0422,-0.0263 0.055,-0.0822 0.0285,-0.12406 -0.026,-0.0417 -0.0675,-0.0356 -0.0916,0.0138 -0.0241,0.0492 -0.0701,0.0465 -0.10174,-0.005 -0.0319,-0.0519 -0.0577,-0.16149 -0.0583,-0.2432 5.7e-4,-0.12446 0.0474,-0.15843 0.28678,-0.20701 0.15752,-0.032 0.29309,-0.0874 0.30122,-0.12317 0.008,-0.0358 -0.061,-0.0611 -0.15392,-0.0565 -0.0929,0.004 -0.18644,-0.0194 -0.20811,-0.0535 -0.0215,-0.0344 0.0438,-0.14415 0.14535,-0.24415 0.10149,-0.0999 0.18428,-0.22312 0.18391,-0.27359 -2.1e-4,-0.0505 0.0702,-0.13581 0.157,-0.18957 0.0946,-0.0586 0.13814,-0.0555 0.1084,0.007 -0.0272,0.0575 -0.0201,0.17606 0.016,0.26359 0.0491,0.11952 0.10244,0.13386 0.21597,0.0575 0.0977,-0.0662 0.15916,-0.0601 0.17432,0.0167 0.0161,0.0795 0.0525,0.0796 0.111,0.001 0.0686,-0.0916 0.1171,-0.0701 0.22395,0.0999 0.0749,0.11927 0.14898,0.28033 0.16464,0.35775 0.0158,0.0776 -0.0489,0.26185 -0.14266,0.40935 -0.0938,0.14746 -0.14243,0.31287 -0.10804,0.36752 0.0343,0.0546 0.10747,0.0711 0.16222,0.037 0.055,-0.0344 0.0867,-0.12947 0.0707,-0.2111 -0.0223,-0.11306 0.003,-0.14093 0.10702,-0.11722 0.0749,0.0175 0.21046,-0.0153 0.30113,-0.0726 0.0906,-0.0571 0.18266,-0.0752 0.20408,-0.0412 0.0216,0.0344 0.13114,-0.0119 0.24367,-0.10222 0.11247,-0.0904 0.22803,-0.21084 0.25682,-0.26754 0.029,-0.0571 0.0427,-0.0209 0.0307,0.0798 -0.0195,0.16116 -0.004,0.17163 0.12998,0.0875 0.0899,-0.0565 0.12344,-0.14132 0.0819,-0.20741 -0.0386,-0.0615 -0.0252,-0.11215 0.0289,-0.11268 0.0547,-6.6e-4 0.072,-0.0448 0.0384,-0.0981 -0.0338,-0.0535 -0.12888,-0.11546 -0.21152,-0.1376 -0.12145,-0.0331 -0.12418,-0.0413 -0.0126,-0.0462 0.10497,-0.004 0.1049,-0.0361 -1.6e-4,-0.135 -0.086,-0.0808 -0.10471,-0.14979 -0.0488,-0.18482 0.0573,-0.0366 0.0299,-0.12405 -0.079,-0.25158 -0.0922,-0.10772 -0.21006,-0.19563 -0.26212,-0.19526 -0.0521,5.3e-4 -0.10253,0.0351 -0.11193,0.0775 -0.009,0.0421 0.0481,0.0759 0.12813,0.0753 0.097,-7.2e-4 0.13668,0.0379 0.119,0.11561 -0.0148,0.0642 -0.0759,0.11591 -0.13626,0.11488 -0.0603,-8.3e-4 -0.19294,-0.0908 -0.29477,-0.19934 -0.14031,-0.14967 -0.17034,-0.25002 -0.12409,-0.41465 0.0473,-0.16642 0.0931,-0.20994 0.19835,-0.18597 0.0755,0.0176 0.16314,0.0151 0.19474,-0.004 0.0315,-0.0202 0.0358,-0.0702 0.009,-0.11199 -0.0261,-0.0417 -0.0675,-0.0356 -0.0914,0.0148 -0.0241,0.0492 -0.0653,0.0552 -0.0914,0.0148 -0.026,-0.0417 -0.11517,-0.0335 -0.19754,0.0186 -0.0824,0.0518 -0.17388,0.24435 -0.20327,0.42788 -0.0295,0.18349 -0.11918,0.37426 -0.19953,0.42392 -0.1206,0.0747 -0.13499,0.0662 -0.0822,-0.047 0.0426,-0.0914 0.0334,-0.11876 -0.0261,-0.082 -0.0495,0.0308 -0.10962,0.0246 -0.13327,-0.0131 -0.024,-0.0373 0.0546,-0.15884 0.17412,-0.26939 0.11944,-0.1105 0.23394,-0.29636 0.25446,-0.41293 0.0259,-0.14728 0.10222,-0.23552 0.2498,-0.28911 0.16827,-0.061 0.17982,-0.0795 0.0555,-0.0885 -0.13534,-0.01 -0.14616,-0.0453 -0.0772,-0.25945 0.0603,-0.18697 0.041,-0.28525 -0.0782,-0.39902 -0.0868,-0.0831 -0.13144,-0.16757 -0.0991,-0.18788 0.0321,-0.0205 0.03,-0.16837 -0.005,-0.32905 -0.0352,-0.16065 -0.0964,-0.3443 -0.13642,-0.40809 -0.0515,-0.082 -0.0131,-0.14822 0.13272,-0.22636 0.18654,-0.10023 0.19203,-0.13659 0.0591,-0.39261 -0.11521,-0.22201 -0.16332,-0.25958 -0.22576,-0.17624 -0.0436,0.0583 -0.1108,0.0889 -0.1496,0.0676 -0.0385,-0.0208 -0.15197,-0.11788 -0.25207,-0.21584 -0.15374,-0.15031 -0.15767,-0.17483 -0.0253,-0.15733 0.0863,0.0109 0.19649,-0.0323 0.24518,-0.0972 0.058,-0.0775 0.11238,-0.0799 0.15781,-0.008 0.0382,0.0606 0.15729,0.0891 0.26471,0.0633 0.10742,-0.0262 0.24803,-0.0693 0.31262,-0.0953 0.0643,-0.0266 0.1175,-0.10213 0.11791,-0.168 1.9e-4,-0.0852 0.0209,-0.0887 0.0697,-0.0123 0.0375,0.0591 0.19265,0.0893 0.34386,0.0672 0.19887,-0.029 0.30576,0.009 0.38672,0.13791 0.0615,0.0978 0.18733,0.22095 0.27971,0.27354 0.0929,0.0529 0.20165,0.0506 0.24337,-0.005 0.0585,-0.0781 0.0986,-0.0427 0.17703,0.15599 0.056,0.14123 0.0817,0.37663 0.0572,0.52319 l -0.0441,0.26634 0.10537,-0.17987 c 0.0579,-0.0988 0.12356,-0.19135 0.14587,-0.20538 0.0223,-0.0138 0.0618,0.009 0.0883,0.0504 0.0261,0.0418 0.009,0.0761 -0.0405,0.0767 -0.0486,-1.8e-4 -0.098,0.0744 -0.10991,0.16444 -0.0165,0.12446 -0.0574,0.15905 -0.17081,0.144 -0.11131,-0.0148 -0.13607,0.001 -0.0976,0.0623 0.0287,0.045 0.15577,0.068 0.28307,0.0508 0.22982,-0.031 0.2311,-0.0295 0.17278,0.18996 -0.0321,0.12167 -0.0181,0.25158 0.0318,0.28877 0.0497,0.0373 0.051,0.14903 0.003,0.24841 -0.0732,0.15106 -0.0987,0.16298 -0.15555,0.0726 -0.0376,-0.0593 -0.0366,-0.12819 0.004,-0.15318 0.0394,-0.025 0.0492,-0.0809 0.0215,-0.12451 -0.0301,-0.048 -0.0864,-0.0275 -0.14214,0.0523 -0.0506,0.0723 -0.15091,0.18147 -0.22262,0.24239 -0.0717,0.0609 -0.15686,0.13107 -0.18915,0.15607 -0.0323,0.025 0.004,0.0657 0.0805,0.0909 0.10269,0.0336 0.13589,0.0943 0.12622,0.23089 -0.0116,0.16679 -0.04,0.1615 -0.28596,-0.0534 -0.15006,-0.13132 -0.29787,-0.22296 -0.32834,-0.20381 -0.0307,0.0187 -0.0869,0.18804 -0.1254,0.37529 -0.038,0.18737 -0.11483,0.34081 -0.16963,0.34124 -0.0562,8.6e-4 -0.0549,0.0223 0.003,0.0514 0.0567,0.0277 0.16763,0.01 0.24648,-0.0397 0.0788,-0.0495 0.11272,-0.10523 0.0754,-0.12344 -0.0373,-0.0185 -0.0617,-0.11821 -0.0549,-0.22154 0.007,-0.10361 0.0521,-0.16925 0.0985,-0.14636 0.047,0.0229 0.0447,0.0961 -0.005,0.16244 -0.0655,0.0873 -0.0551,0.12866 0.037,0.14984 0.0927,0.0209 0.12804,0.0787 0.1289,0.20871 9.7e-4,0.13096 -0.0441,0.18284 -0.16276,0.19129 -0.13408,0.009 -0.1401,0.033 -0.0331,0.13355 0.0727,0.0683 0.16109,0.0808 0.20045,0.0283 0.05,-0.0668 0.11124,-0.0209 0.21261,0.16023 0.10132,0.1809 0.10847,0.27549 0.0243,0.32845 -0.066,0.0418 -0.18704,0.008 -0.27623,-0.0775 -0.15869,-0.15196 -0.15869,-0.15196 -0.22191,0.086 -0.0344,0.13097 -0.0981,0.2383 -0.1408,0.23863 -0.0429,-3.6e-4 -0.0775,0.0427 -0.0768,0.0949 4.9e-4,0.0519 0.0517,0.0941 0.11502,0.0933 0.0627,-2.7e-4 0.1109,-0.072 0.10611,-0.15982 -0.005,-0.0873 0.0226,-0.17823 0.0601,-0.20174 0.0372,-0.024 0.0998,0.007 0.13838,0.0689 0.0386,0.0616 0.0252,0.11215 -0.0288,0.11266 -0.0548,6.8e-4 -0.0601,0.0634 -0.0121,0.14003 0.0516,0.0821 0.0343,0.20091 -0.043,0.28963 -0.0821,0.0948 -0.0876,0.14294 -0.0148,0.13039 0.0636,-0.0111 0.15622,-0.0784 0.20528,-0.15069 0.0493,-0.0719 0.17535,-0.17324 0.28011,-0.2253 0.10474,-0.0521 0.23229,-0.0743 0.28337,-0.0492 0.0571,0.0277 0.11914,-0.0534 0.16098,-0.21142 0.0379,-0.14099 0.10076,-0.27713 0.14063,-0.3022 0.0415,-0.026 0.0587,0.0147 0.0407,0.0945 -0.0179,0.0769 -0.0156,0.16591 0.004,0.19739 0.0202,0.0315 0.0844,0.027 0.1436,-0.0102 0.059,-0.0375 0.12456,-0.0405 0.14536,-0.008 0.0209,0.0331 0.13989,0.0464 0.26456,0.0296 0.19376,-0.0261 0.23124,-0.0652 0.25729,-0.27067 0.0168,-0.13212 0.0713,-0.28064 0.12164,-0.33 0.0501,-0.0495 0.12126,-0.18495 0.15812,-0.30132 0.037,-0.11622 0.13288,-0.24998 0.21331,-0.29699 0.0825,-0.0485 0.1634,-0.0378 0.18546,0.0237 0.0216,0.0601 0.0319,0.32163 0.0225,0.58123 -0.009,0.25957 -0.0417,0.75774 -0.0723,1.10701 -0.0306,0.34927 -0.15571,1.11429 -0.27807,1.70002 -0.12235,0.58576 -0.26786,1.09344 -0.32312,1.12827 -0.0554,0.0347 -0.13482,0.2378 -0.17668,0.45112 -0.0418,0.2133 -0.13461,0.45438 -0.2061,0.53573 -0.0716,0.0812 -0.11288,0.16809 -0.0919,0.19285 0.0214,0.0245 0.0597,0.0876 0.0857,0.14003 0.0257,0.0526 -4.9e-4,0.12537 -0.0596,0.16253 -0.059,0.0375 -0.0916,0.0929 -0.0719,0.12392 0.0198,0.0308 -0.029,0.0969 -0.10793,0.14645 -0.0788,0.0495 -0.16068,0.0625 -0.18179,0.0293 -0.0212,-0.0337 -0.0899,0.0649 -0.15341,0.21793 -0.0632,0.15354 -0.13312,0.29059 -0.15542,0.30456 -0.0223,0.0138 -0.0582,-0.0422 -0.0797,-0.1249 -0.0356,-0.13315 -0.0423,-0.13106 -0.0658,0.0197 -0.0148,0.0935 -0.099,0.22332 -0.18829,0.28804 -0.0894,0.0645 -0.18759,0.20796 -0.21858,0.31833 -0.0314,0.11028 -0.10659,0.20102 -0.16787,0.20145 -0.0612,7e-5 -0.18329,0.0756 -0.27062,0.1678 -0.11521,0.12035 -0.12272,0.16625 -0.0271,0.16552 0.10058,-9.3e-4 0.10377,0.0328 0.0144,0.13886 -0.0651,0.077 -0.32012,0.27134 -0.56668,0.43204 -0.24645,0.16084 -0.61786,0.4877 -0.82507,0.72681 -0.20721,0.23909 -0.38635,0.46884 -0.39809,0.51056 -0.0114,0.0419 0.11672,3e-5 0.28552,-0.093 0.18168,-0.1 0.34805,-0.25887 0.40791,-0.38947 0.0556,-0.12138 0.12921,-0.21425 0.1637,-0.20642 0.0344,0.008 0.0746,0.0749 0.0889,0.14909 0.015,0.074 -0.0515,0.21037 -0.14691,0.30299 -0.0954,0.0925 -0.24274,0.23708 -0.3274,0.32114 -0.0861,0.0853 -0.10327,0.14206 -0.0389,0.12836 0.0851,-0.0185 0.097,0.022 0.0464,0.1535 -0.0648,0.16854 -0.0617,0.17171 0.0575,0.0598 0.0691,-0.0649 0.20381,-0.19369 0.29925,-0.28607 0.0954,-0.0923 0.13448,-0.18719 0.0867,-0.21059 -0.0477,-0.0234 -0.0204,-0.0843 0.0607,-0.13535 0.0813,-0.0511 0.1292,-0.122 0.1068,-0.15772 -0.0222,-0.0358 0.0207,-0.0922 0.0964,-0.12504 0.0754,-0.033 0.0862,-0.0479 0.024,-0.0328 -0.0624,0.0149 -0.12407,-0.0163 -0.13699,-0.0695 -0.013,-0.0531 0.11142,-0.18643 0.27652,-0.29611 0.16509,-0.10959 0.29974,-0.25366 0.29923,-0.32003 -5e-4,-0.0663 0.0796,-0.2106 0.178,-0.32052 0.0984,-0.10994 0.22048,-0.19705 0.27124,-0.19369 0.0508,0.003 0.14795,0.0724 0.21609,0.15335 0.0682,0.081 0.088,0.16978 0.0438,0.19762 -0.045,0.0288 -0.0322,0.075 0.0301,0.1062 0.0747,0.038 0.0515,0.0487 -0.0731,0.0337 -0.15818,-0.019 -0.17295,-0.006 -0.10799,0.0974 0.0416,0.0657 0.0302,0.13653 -0.0259,0.15776 -0.0558,0.0207 -0.18046,0.12655 -0.27761,0.23451 l -0.1767,0.19614 0.21075,-0.0625 c 0.19354,-0.0573 0.18917,-0.0386 -0.052,0.23533 -0.14457,0.16375 -0.30208,0.33417 -0.34999,0.37876 -0.048,0.0445 -0.0991,0.14219 -0.11354,0.21708 -0.0205,0.10377 0.0106,0.10101 0.13045,-0.0119 0.0863,-0.0816 0.20232,-0.21286 0.25801,-0.29177 0.0683,-0.0969 0.10146,-0.10811 0.10195,-0.035 10e-6,0.0599 -0.13315,0.27066 -0.29691,0.46846 -0.16377,0.19782 -0.33712,0.46775 -0.38521,0.5999 -0.0481,0.13211 -0.15766,0.2844 -0.24348,0.33837 -0.0858,0.0539 -0.18205,0.19632 -0.21393,0.31635 -0.0317,0.12005 -0.17728,0.34966 -0.32311,0.51025 -0.14584,0.16059 -0.45959,0.48378 -0.69725,0.71822 -0.23762,0.23446 -0.43217,0.46759 -0.43228,0.51814 -5e-4,0.0505 -0.21816,0.3121 -0.48459,0.5813 -0.26641,0.26921 -0.67226,0.65591 -0.90186,0.85935 -0.22965,0.20343 -0.67116,0.55701 -0.98121,0.78566 -0.3746,0.27632 -0.57956,0.39052 -0.61103,0.34046 -0.026,-0.0415 -0.1478,-0.0426 -0.27072,-0.002 l -0.22343,0.0729 0.13306,-0.17308 c 0.10773,-0.14028 0.1053,-0.17286 -0.0128,-0.17199 -0.0901,2e-4 -0.15633,0.0461 -0.17271,0.11913 -0.015,0.0648 0.028,0.20504 0.0948,0.31128 0.11891,0.18898 0.11104,0.20033 -0.36515,0.53272 -0.26758,0.18681 -0.94572,0.57561 -1.50693,0.8641 -0.56118,0.28852 -1.38295,0.6636 -1.82616,0.83356 -0.44317,0.17 -1.09591,0.40308 -1.45051,0.51794 -0.35462,0.11488 -1.04792,0.30062 -1.54077,0.41265 -0.49284,0.11204 -1.40053,0.26366 -2.01705,0.33708 -0.61653,0.0733 -1.50241,0.13177 -1.96862,0.13003 -0.46622,-0.002 -1.28563,-0.0354 -1.82089,-0.0743 -0.53526,-0.0389 -1.4184,-0.14698 -1.9625,-0.24017 -0.54412,-0.0932 -1.42113,-0.30148 -1.94893,-0.46289 -0.52779,-0.1614 -1.30762,-0.42769 -1.73294,-0.59173 -0.42532,-0.16401 -0.93811,-0.39717 -1.13954,-0.51803 -0.20143,-0.1209 -0.45906,-0.25142 -0.57253,-0.29011 -0.11348,-0.0387 -0.30377,-0.12659 -0.42291,-0.19546 -0.11917,-0.0688 -0.4442,-0.25554 -0.72233,-0.41495 -0.27811,-0.1594 -0.83106,-0.52671 -1.22876,-0.81627 -0.39768,-0.28957 -0.89111,-0.66834 -1.09651,-0.84174 -0.20539,-0.17338 -0.43704,-0.36528 -0.51477,-0.42643 -0.0777,-0.0611 -0.29989,-0.2514 -0.4937,-0.42283 -0.29983,-0.2652 -0.33335,-0.31543 -0.22474,-0.33687 0.0703,-0.0138 0.10884,-0.0551 0.0862,-0.0911 -0.0225,-0.0364 -0.11067,-0.0623 -0.19545,-0.0575 -0.0888,0.005 -0.31635,-0.16122 -0.53791,-0.39183 -0.2112,-0.21982 -0.68543,-0.76562 -1.05382,-1.21288 -0.36839,-0.44725 -0.9423,-1.25652 -1.27538,-1.79839 -0.33348,-0.54162 -0.81632,-1.41531 -1.07382,-1.94097 z m 32.07395,-1.1804 c -0.0177,0.13881 0.003,0.13721 0.14551,-0.0109 0.0957,-0.0997 0.18482,-0.14346 0.21001,-0.10344 0.0244,0.0383 0.0794,-0.0631 0.12291,-0.22538 0.0432,-0.16238 0.13121,-0.32705 0.19479,-0.36621 0.0669,-0.0412 0.0991,-0.0307 0.077,0.0262 -0.0214,0.0536 -0.0335,0.20013 -0.0274,0.32528 0.009,0.19429 0.0404,0.23562 0.2091,0.28321 0.15545,0.0435 0.18284,0.0764 0.1275,0.15238 -0.0441,0.0606 -0.0198,0.0678 0.065,0.0191 0.0746,-0.0425 0.15036,-0.18785 0.16854,-0.32311 0.0183,-0.13524 0.0594,-0.20714 0.0905,-0.15999 0.0318,0.047 0.0941,0.0369 0.13898,-0.0225 0.0449,-0.0599 0.0634,-0.13769 0.0417,-0.17281 -0.022,-0.0352 -0.0621,-0.045 -0.0887,-0.0217 -0.0264,0.0236 -0.0924,0.0651 -0.1467,0.0921 -0.0717,0.0367 -0.0934,-0.02 -0.0803,-0.20717 0.0127,-0.1804 0.0691,-0.2713 0.18799,-0.30493 0.1685,-0.047 0.16768,-0.0489 -0.0669,-0.11573 -0.13015,-0.0373 -0.26867,-0.0253 -0.30796,0.0269 -0.0391,0.0524 -0.091,0.0643 -0.1151,0.0258 -0.0244,-0.0381 -0.004,-0.094 0.0437,-0.12431 0.0481,-0.0301 0.10706,-0.18712 0.1313,-0.34872 0.0242,-0.16161 0.0114,-0.29978 -0.0289,-0.30704 -0.0398,-0.008 -0.0614,0.0363 -0.0482,0.0965 0.0131,0.0603 -0.0213,0.13844 -0.0772,0.17356 -0.0561,0.0349 -0.0858,0.0888 -0.0666,0.11943 0.0188,0.0308 -0.10436,0.13816 -0.27476,0.23903 -0.1702,0.10115 -0.40559,0.26452 -0.52244,0.36416 -0.15001,0.12752 -0.18567,0.21147 -0.12098,0.28482 0.0589,0.067 0.0362,0.15079 -0.0631,0.23454 -0.11157,0.0944 -0.1191,0.13863 -0.027,0.15963 0.0922,0.0207 0.12167,0.0739 0.10678,0.19103 z"
       id="path8072-5-6-9"
       inkscape:export-filename="Downloads\Logo\atlas_C2.svg"
       inkscape:export-xdpi="96"
       inkscape:export-ydpi="96" /><path
       style="fill:#f0f0f0;fill-opacity:1;stroke-width:0.264583"
       d="m 816.83391,353.26269 c -9.51475,-0.42859 -9.65597,-0.91694 -0.39227,-1.3565 5.08943,-0.24149 6.24093,-0.37537 7.8596,-0.91378 1.04309,-0.34696 2.14442,-0.63083 2.4474,-0.63083 0.30298,0 0.55087,-0.10456 0.55087,-0.23235 0,-0.31273 -4.77143,-3.88418 -5.49683,-4.11442 -0.70634,-0.22418 -1.64692,-1.37767 -1.64692,-2.01971 0,-1.55214 5.20845,-3.14745 7.8255,-2.3969 0.78694,0.2257 4.34533,2.86938 4.34533,3.22834 0,0.46088 -0.88091,0.80059 -2.45794,0.94785 -1.48565,0.13873 -1.83329,0.0841 -2.50431,-0.39373 -1.26622,-0.90163 -3.769,-1.28573 -3.769,-0.57844 0,0.11268 0.56555,0.34701 1.25677,0.52074 1.54366,0.38796 2.05136,0.82875 2.90837,2.52508 0.3676,0.7276 0.95005,1.65947 1.29432,2.07082 0.34428,0.41134 0.62634,0.94712 0.6268,1.19062 8e-4,0.40015 0.54777,0.44272 5.68862,0.44272 3.12827,0 5.68774,-0.0639 5.6877,-0.14208 -4e-5,-0.0781 -0.78112,-0.5913 -1.73573,-1.14035 -2.20077,-1.26576 -3.4664,-2.53379 -4.67633,-4.68518 -0.52748,-0.93792 -1.23533,-1.87302 -1.57301,-2.078 -0.33768,-0.20499 -1.18232,-0.85107 -1.87697,-1.43574 -0.88935,-0.74854 -1.16411,-1.12416 -0.92872,-1.26965 0.20338,-0.12569 0.59436,0.0321 0.99842,0.40298 0.80731,0.74099 1.89826,1.48448 2.17822,1.48448 0.48157,0 0.13984,-0.75379 -0.71922,-1.58642 l -0.92493,-0.89648 0.7265,-0.30628 c 1.28329,-0.54104 2.41905,-1.69142 2.5948,-2.62822 0.18123,-0.96604 -0.30001,-2.26862 -0.91195,-2.46841 -0.28939,-0.0945 -0.32732,0.0894 -0.18018,0.87378 0.26019,1.38689 -0.241,2.4328 -1.46498,3.05723 -1.28684,0.6565 -1.35786,0.65128 -2.3358,-0.1716 l -0.81623,-0.68681 0.64433,-0.76575 c 0.35439,-0.42116 0.77832,-1.41112 0.94207,-2.1999 0.40252,-1.93893 1.22574,-2.80447 2.66735,-2.80447 1.04084,0 1.09077,0.0354 0.93364,0.66145 0.8228,-0.39983 1.55803,1.17359 2.47267,1.19067 1.33864,0 3.19222,-1.26021 3.19222,-2.17033 0,-0.26983 0.35719,-1.19818 0.79375,-2.063 0.78037,-1.54589 1.08859,-3.75531 0.5687,-4.07662 -0.12377,-0.0765 -1.01674,-0.28927 -1.98437,-0.47282 -2.0898,-0.39643 -2.3479,-0.94005 -0.50255,-1.05846 l 1.25677,-0.0807 -1.30909,-0.9086 c -1.45541,-1.01015 -1.21643,-1.40015 0.40886,-0.66725 1.42353,0.64192 1.58347,0.30393 0.42001,-0.88755 -0.53624,-0.54917 -0.97499,-1.1423 -0.97499,-1.31806 0,-0.67794 0.95422,-0.27031 1.88422,0.8049 1.13079,1.30738 1.52406,1.17782 1.02401,-0.33736 -0.26496,-0.80283 -0.36373,-1.44188 -0.0489,-1.37102 1.0254,0.23076 1.41584,1.72706 1.6386,3.03614 0,0.17626 0.32083,-0.0255 0.71295,-0.4484 0.76684,-0.827 1.11714,-0.56833 0.58081,0.42889 -0.60178,1.11889 -0.82747,2.69815 -0.86233,6.03394 -0.0302,2.89214 -0.10995,3.44844 -0.63524,4.43177 -0.33038,0.61846 -0.76617,1.12448 -0.96843,1.12448 -0.20226,0 -1.10538,0.34885 -2.00693,0.77521 -0.90155,0.42637 -2.10287,0.85355 -2.66959,0.9493 -1.02193,0.17266 -1.0304,0.18403 -1.0304,1.38435 0,0.66564 -0.19988,1.84435 -0.44419,2.61936 -0.49132,1.55867 -0.40068,1.86769 0.41914,1.42894 1.25485,-0.67158 3.46463,1.40799 3.46463,3.26049 0,0.9541 0.15404,1.26704 1.05833,2.15006 1.0337,1.00937 1.32566,1.78793 0.79375,2.11667 -0.14552,0.0899 -0.26458,0.27555 -0.26458,0.41249 0,0.48912 0.61329,0.23454 1.61491,-0.67036 1.2422,-1.12226 2.14063,-1.37501 3.46233,-0.97403 0.5545,0.16822 1.48676,0.45014 2.0717,0.62648 0.82534,0.24882 1.25041,0.25009 1.89795,0.006 1.24193,-0.46878 1.53644,-0.0765 1.53644,2.04668 v 1.77903 l 3.14097,0.16889 c 3.86781,0.20797 5.08882,0.5439 2.93856,0.80848 -5.12006,0.63001 -30.92418,0.89016 -41.41596,0.41756 z m 33.01019,-1.90893 c 0.2314,-0.1819 0.5003,-0.59862 0.59757,-0.92604 0.16042,-0.54007 0.0882,-0.59531 -0.77819,-0.59531 -1.84895,0 -6.75355,1.25154 -6.75355,1.72334 0,0.30686 6.52878,0.11668 6.93417,-0.20199 z m -22.7738,-12.2423 c -0.63539,-0.36322 -1.60502,-1.01663 -2.15474,-1.45202 -0.86633,-0.68615 -1.21764,-0.79161 -2.63686,-0.79161 -1.21402,0 -2.0935,-0.19569 -3.40151,-0.75684 -0.97028,-0.41627 -1.96301,-0.82561 -2.20607,-0.90965 -0.30719,-0.10621 -0.49787,-0.60049 -0.62539,-1.62108 -0.22583,-1.80751 -0.007,-3.05138 0.82439,-4.69267 0.35189,-0.69442 0.63981,-1.44315 0.63981,-1.66384 0,-0.2207 -0.58693,-1.26162 -1.30429,-2.31316 -0.71736,-1.05155 -1.23497,-2.02407 -1.15024,-2.16117 0.14372,-0.23254 0.33388,-0.0437 1.27932,1.27015 0.57462,0.79857 0.72324,0.31765 0.2938,-0.9507 -0.38522,-1.13769 -0.35205,-1.68634 0.0856,-1.41587 0.12427,0.0768 0.30379,0.4941 0.39895,0.92733 0.29977,1.36488 0.76532,1.29135 0.57585,-0.0909 -0.21844,-1.59372 0.24399,-1.62348 0.64237,-0.0414 0.34686,1.37751 0.71118,1.53164 0.93813,0.39688 0.28301,-1.41505 0.49147,-0.84277 0.4094,1.12388 -0.044,1.05536 -0.26708,2.32496 -0.49565,2.82133 -0.31651,0.68735 -0.37506,1.34967 -0.24561,2.7782 0.13177,1.4541 0.0803,2.00373 -0.22904,2.44537 -0.18948,1.64229 0.91444,2.98468 3.08583,1.96012 0.35853,-0.28202 0.94161,-0.58548 1.29572,-0.67436 0.54019,-0.13558 0.69287,-0.0317 0.94832,0.64506 0.49074,1.3001 0.85869,0.97434 0.69465,-0.61501 -0.12524,-1.21351 -0.0643,-1.50404 0.416,-1.98437 0.31724,-0.31724 0.90012,-0.56272 1.33616,-0.56272 2.13165,0 4.31006,4.02935 3.08386,5.70412 -0.29904,0.40844 -0.66468,0.50494 -1.78593,0.47136 l -1.40992,-0.0422 0.79376,0.4101 c 0.75898,0.39214 2.51354,2.00258 2.51354,2.30707 0,0.38333 -1.57982,0.0678 -2.61046,-0.52138 z"
       id="path145-3-6-1-4"
       sodipodi:nodetypes="cssssssssscsssscsssssssssscssscsscsssccssssccsssssssccscssssscssscsssscscssccssssssssssscsssssscssscssccssssssccssss" /><text
       xml:space="preserve"
       style="font-size:15.743px;fill:#ffffff;fill-opacity:1;stroke-width:1.31191"
       x="656.75879"
       y="446.65234"
       id="text6450-8-1"
       transform="scale(1.2232011,0.81752706)"><tspan
         sodipodi:role="line"
         id="tspan6448-65-7"
         style="font-style:normal;font-variant:normal;font-weight:bold;font-stretch:normal;font-family:'Palatino Linotype';-inkscape-font-specification:'Palatino Linotype Bold';fill:#ffffff;fill-opacity:1;stroke-width:1.31191"
         x="656.75879"
         y="446.65234">ATLAS</tspan></text></g></svg>
