<?xml version="1.0" encoding="UTF-8" standalone="no"?>
<!-- Created with Inkscape (http://www.inkscape.org/) -->

<svg
   width="63.336975mm"
   height="59.543884mm"
   viewBox="0 0 63.336975 59.543884"
   version="1.1"
   id="svg5"
   xml:space="preserve"
   sodipodi:docname="Atlas.svg"
   inkscape:version="1.2.1 (9c6d41e410, 2022-07-14)"
   inkscape:export-filename="Downloads\Logo\Atlas\Atlas.svg"
   inkscape:export-xdpi="96"
   inkscape:export-ydpi="96"
   xmlns:inkscape="http://www.inkscape.org/namespaces/inkscape"
   xmlns:sodipodi="http://sodipodi.sourceforge.net/DTD/sodipodi-0.dtd"
   xmlns:xlink="http://www.w3.org/1999/xlink"
   xmlns="http://www.w3.org/2000/svg"
   xmlns:svg="http://www.w3.org/2000/svg"><sodipodi:namedview
     id="namedview7"
     pagecolor="#ffffff"
     bordercolor="#000000"
     borderopacity="0.25"
     inkscape:showpageshadow="2"
     inkscape:pageopacity="0.0"
     inkscape:pagecheckerboard="0"
     inkscape:deskcolor="#d1d1d1"
     inkscape:document-units="mm"
     showgrid="false"
     inkscape:zoom="0.71624579"
     inkscape:cx="627.57786"
     inkscape:cy="863.53038"
     inkscape:window-width="1920"
     inkscape:window-height="991"
     inkscape:window-x="-9"
     inkscape:window-y="-9"
     inkscape:window-maximized="1"
     inkscape:current-layer="layer1" /><defs
     id="defs2"><linearGradient
       inkscape:collect="always"
       id="linearGradient9534"><stop
         style="stop-color:#f0f0f0;stop-opacity:1;"
         offset="0"
         id="stop9530" /><stop
         style="stop-color:#b0896d;stop-opacity:0.7518248;"
         offset="1"
         id="stop9532" /></linearGradient><radialGradient
       inkscape:collect="always"
       xlink:href="#linearGradient9534"
       id="radialGradient9536-7"
       cx="654.57404"
       cy="215.54947"
       fx="654.57404"
       fy="215.54947"
       r="18.315012"
       gradientTransform="matrix(1.0996379,-1.09068,0.90945365,0.9169235,-247.50036,850.43984)"
       gradientUnits="userSpaceOnUse" /></defs><g
     inkscape:label="Camada 1"
     inkscape:groupmode="layer"
     id="layer1"
     transform="translate(-642.04079,-308.36248)"><path
       style="fill:url(#radialGradient9536-7);fill-opacity:1;stroke-width:0.117183"
       d="m 659.26574,337.20493 c -0.45594,-0.35835 -1.01699,-0.88441 -1.24674,-1.16902 -0.22975,-0.28462 -0.46151,-0.47854 -0.51499,-0.43096 -0.0535,0.0475 -0.0627,0.0264 -0.0208,-0.0474 0.0422,-0.0734 -0.16453,-0.51933 -0.45917,-0.99069 -0.29468,-0.47141 -0.73481,-1.05818 -0.97815,-1.30398 -0.24331,-0.24579 -0.74286,-0.91136 -1.11009,-1.47902 -0.60329,-0.9325 -0.68421,-1.13463 -0.83853,-2.09384 -0.0939,-0.58394 -0.20921,-1.14257 -0.25614,-1.24139 -0.047,-0.0988 -0.13098,-0.15195 -0.18656,-0.11809 -0.0556,0.0338 -0.16682,-0.0397 -0.24707,-0.16353 -0.0802,-0.12395 -0.26776,-0.52797 -0.41672,-0.89803 -0.14894,-0.37009 -0.28208,-0.91735 -0.29584,-1.2162 -0.0142,-0.29885 0.0303,-0.54519 0.0979,-0.54738 0.0675,-0.004 0.13432,0.24407 0.1483,0.54728 0.0143,0.30321 0.0821,0.58054 0.15146,0.61623 0.0693,0.036 0.13848,0.25016 0.15367,0.4765 0.0151,0.22637 0.0736,0.50637 0.12969,0.62223 0.0562,0.11578 0.1955,0.22001 0.30967,0.23142 0.13066,0.0125 0.20404,-0.0559 0.19807,-0.18594 -0.005,-0.11362 0.0579,-0.24817 0.14004,-0.29888 0.0823,-0.0507 0.21658,-0.10367 0.29841,-0.11764 0.0819,-0.0135 0.14552,0.008 0.14149,0.0482 -0.004,0.0404 0.002,0.13032 0.0132,0.19962 0.0104,0.0693 0.13221,0.14864 0.26884,0.17631 0.13663,0.0276 0.24661,0.009 0.24427,-0.0404 -0.003,-0.0502 0.10704,-0.0681 0.24289,-0.0406 0.13588,0.0275 0.2191,0.095 0.1849,0.15015 -0.0343,0.055 0.12513,0.29558 0.35425,0.53445 0.22903,0.23887 0.49206,0.43184 0.58451,0.42882 0.0925,-0.003 0.30702,0.0705 0.47686,0.16354 0.16984,0.0929 0.44359,0.39828 0.60834,0.67852 0.16476,0.28024 0.39552,0.61784 0.51281,0.7502 0.11726,0.13236 0.24182,0.21261 0.27679,0.17826 0.0349,-0.0343 0.2383,0.0124 0.45185,0.10363 0.21354,0.0913 0.39013,0.2066 0.39243,0.25614 0.003,0.0497 0.0735,0.0895 0.15792,0.0883 0.0846,-7.4e-4 0.38489,0.0487 0.66754,0.10938 0.2826,0.0611 0.5908,0.1889 0.6849,0.28397 0.0942,0.0951 0.30247,0.21329 0.46311,0.2627 0.16061,0.0494 0.38224,0.26537 0.49249,0.47988 0.18048,0.35122 0.18159,0.42639 0.0107,0.75467 -0.10407,0.20051 -0.23105,0.45082 -0.28217,0.55624 -0.0522,0.10742 -0.0318,0.33415 0.0483,0.51598 0.0775,0.17837 0.16425,0.59162 0.19237,0.91835 l 0.0512,0.59402 -0.41349,0.0332 c -0.22746,0.0182 -0.45392,0.0984 -0.50334,0.17801 -0.0494,0.0796 -0.0277,0.2566 0.0488,0.39336 0.0762,0.13677 0.1097,0.42944 0.0746,0.65039 -0.83448,-1.64634 3.19354,4.21584 2.06205,3.44759 -1.84647,-1.25372 -0.44878,0.47269 -3.56451,-3.04462 z m 18.1237,-0.20046 c -0.0488,-0.0656 -0.0581,-0.16862 -0.0205,-0.22882 0.0373,-0.0601 -0.009,-0.2215 -0.10144,-0.35849 -0.0931,-0.13698 -0.26592,-0.31017 -0.38384,-0.38484 -0.11799,-0.0747 -0.26197,-0.36012 -0.32022,-0.63439 -0.0582,-0.27422 -0.27072,-0.68882 -0.47216,-0.92135 -0.20148,-0.23251 -0.38354,-0.49015 -0.40465,-0.5725 -0.0211,-0.0823 -9e-4,-0.32695 0.043,-0.54359 0.0451,-0.2166 0.18596,-0.53946 0.31315,-0.7175 0.19111,-0.26753 0.20506,-0.37074 0.0804,-0.59456 -0.083,-0.14897 -0.15464,-0.35636 -0.15927,-0.46087 -0.005,-0.10455 -0.13816,-0.39238 -0.29688,-0.63969 -0.15866,-0.2473 -0.44567,-0.53795 -0.63782,-0.64588 -0.19209,-0.10789 -0.40727,-0.30028 -0.47809,-0.42744 -0.0777,-0.13913 -0.0959,-0.42931 -0.0464,-0.72857 0.0453,-0.27354 0.0806,-0.58355 0.0799,-0.68879 -0.002,-0.10536 -0.11728,-0.242 -0.25653,-0.30372 -0.16781,-0.0744 -0.3908,-0.0727 -0.6616,0.005 -0.36728,0.10528 -0.44136,0.0858 -0.73445,-0.19466 -0.19219,-0.18382 -0.4491,-0.30776 -0.62597,-0.30199 -0.16498,0.005 -0.5647,0.15266 -0.88827,0.32723 -0.41089,0.22169 -0.80547,0.33333 -1.30868,0.37021 -0.39622,0.029 -0.87571,0.11751 -1.06549,0.19637 -0.29098,0.12102 -0.4193,0.11154 -0.81829,-0.0601 -0.26028,-0.11216 -0.65718,-0.28481 -0.88208,-0.38346 -0.22492,-0.0985 -0.47459,-0.28652 -0.55486,-0.41751 -0.0803,-0.13101 -0.40549,-0.44341 -0.72269,-0.69423 -0.31723,-0.25085 -0.62553,-0.45448 -0.68512,-0.45252 -0.0596,0.002 -0.11374,-0.11189 -0.12015,-0.2531 -0.007,-0.14114 -0.0786,-0.31266 -0.16004,-0.38112 -0.11217,-0.0942 -0.11499,-0.16385 -0.0115,-0.28662 0.0752,-0.0893 0.1308,-0.35713 0.12381,-0.59548 -0.007,-0.23835 -0.0282,-0.59629 -0.0466,-0.79542 -0.0178,-0.19915 -0.0852,-0.3604 -0.14825,-0.35832 -0.0627,0.002 -0.11934,-0.0975 -0.12497,-0.22096 -0.005,-0.12355 0.13198,-0.51781 0.30599,-0.87604 0.17398,-0.35825 0.41586,-0.81818 0.53747,-1.02204 0.12169,-0.20389 0.30945,-0.39989 0.41732,-0.43558 0.10788,-0.0357 0.28868,-0.16533 0.40175,-0.28818 0.11315,-0.12279 0.24261,-0.46523 0.28784,-0.76085 0.0598,-0.39084 0.18733,-0.63069 0.46752,-0.87881 0.21189,-0.18774 0.43793,-0.4698 0.50236,-0.62685 0.0906,-0.22079 0.074,-0.32787 -0.0738,-0.47241 -0.13282,-0.13018 -0.29538,-0.16432 -0.53539,-0.11264 -0.29799,0.0644 -0.34869,0.0387 -0.37426,-0.18992 -0.0168,-0.14543 -0.0511,-0.60112 -0.0773,-1.0126 -0.0409,-0.6445 -0.0147,-0.7643 0.19305,-0.86464 0.13246,-0.064 0.62655,-0.15681 1.0981,-0.20614 0.47151,-0.0494 0.87109,-0.0909 0.88796,-0.0925 0.0168,-0.002 0.0229,-0.17093 0.0134,-0.3762 -0.01,-0.21896 -0.10911,-0.43775 -0.23972,-0.52931 -0.12248,-0.0859 -0.38849,-0.21408 -0.5913,-0.28502 -0.29191,-0.10206 -0.33263,-0.15152 -0.19552,-0.23699 0.0952,-0.0595 0.32353,-0.11371 0.50722,-0.12062 0.23837,-0.01 0.31262,-0.0577 0.25935,-0.16966 -0.0526,-0.11048 -0.007,-0.14319 0.15583,-0.11037 0.15188,0.0308 0.40038,-0.11194 0.72884,-0.41862 0.27412,-0.25593 0.49598,-0.51773 0.49304,-0.58179 -0.005,-0.0642 0.24068,-0.18504 0.54138,-0.26885 0.30073,-0.0839 0.54493,-0.19286 0.54265,-0.24233 -0.003,-0.0495 -0.0775,-0.18761 -0.16707,-0.30699 -0.11784,-0.157 -0.12921,-0.27028 -0.0409,-0.40956 0.0672,-0.10583 0.17422,-0.21023 0.23794,-0.23189 0.0636,-0.0217 0.18557,0.1096 0.27086,0.29179 0.0945,0.20211 0.1084,0.33271 0.0357,0.3351 -0.0657,9.7e-4 -0.0856,0.0492 -0.0445,0.10499 0.0412,0.0555 0.24713,0.0756 0.45743,0.0444 0.21034,-0.0311 0.47018,-0.0152 0.5774,0.0339 0.12493,0.058 0.29182,0.0283 0.46421,-0.0833 0.14806,-0.0956 0.39714,-0.16841 0.55347,-0.16188 0.15642,0.007 0.37323,0.003 0.48198,-0.007 0.15993,-0.0148 0.18431,-0.12356 0.12763,-0.56637 -0.0677,-0.52936 -0.0581,-0.55037 0.29253,-0.63252 0.19943,-0.0469 0.4619,-0.0606 0.58325,-0.031 0.12128,0.0299 0.30133,0.003 0.40001,-0.0589 0.15943,-0.10071 0.1588,-0.11449 -0.005,-0.12435 -0.1019,-0.006 -0.26804,-0.008 -0.36936,-0.003 -0.10134,0.004 -0.32188,0.0258 -0.49005,0.0487 -0.16813,0.0228 -0.44556,0.0114 -0.61653,-0.0267 -0.17092,-0.0373 -0.38299,-0.19375 -0.47122,-0.34729 -0.14304,-0.24887 -0.12665,-0.30778 0.15186,-0.54274 l 0.31225,-0.26361 -0.39401,-0.0391 c -0.29739,-0.0289 -0.39206,0.003 -0.38609,0.13233 0.005,0.0945 -0.12901,0.27897 -0.29647,0.41001 -0.20837,0.16314 -0.27561,0.29884 -0.21316,0.43022 0.0502,0.10557 0.16499,0.18954 0.25516,0.18658 0.09,-0.003 0.20593,0.0512 0.25727,0.12036 0.0513,0.0692 0.0172,0.18337 -0.0765,0.25393 -0.0933,0.0707 -0.16578,0.18682 -0.16073,0.25836 0.004,0.0714 0.0519,0.16596 0.10403,0.20983 0.0523,0.0437 0.0391,0.14605 -0.0287,0.22715 -0.0683,0.081 -0.20439,0.12256 -0.30238,0.092 -0.098,-0.0304 -0.17565,-2.3e-4 -0.1725,0.0683 0.003,0.0679 -0.0669,0.12592 -0.15576,0.1288 -0.0888,0.003 -0.35733,-0.21346 -0.59671,-0.4808 l -0.43522,-0.48608 -0.37495,0.22856 c -0.22379,0.13645 -0.48503,0.20627 -0.64811,0.17325 -0.15023,-0.0305 -0.28234,-0.11208 -0.29356,-0.18131 -0.0104,-0.0693 -0.0142,-0.18907 -0.007,-0.26609 0.008,-0.0771 -0.0443,-0.13824 -0.11484,-0.13593 -0.0706,0.002 -0.13251,-0.0882 -0.13771,-0.20105 -0.005,-0.1164 0.13435,-0.26958 0.32215,-0.35361 0.18239,-0.0814 0.5059,-0.26367 0.71891,-0.40462 0.21301,-0.14096 0.38558,-0.30254 0.38343,-0.3591 -0.002,-0.0567 0.0833,-0.19764 0.19007,-0.31353 0.12646,-0.13731 0.14201,-0.20898 0.0449,-0.2058 -0.0822,0.002 -0.11682,-0.0471 -0.0774,-0.11117 0.0396,-0.064 0.12482,-0.0888 0.1893,-0.0553 0.0646,0.0332 0.11519,0.0133 0.11252,-0.0433 -0.003,-0.0572 0.28362,-0.15447 0.63613,-0.21638 0.3525,-0.0618 0.83346,-0.11173 1.06881,-0.11053 0.23535,0.002 0.54211,0.0485 0.6817,0.10523 0.13959,0.0568 0.61142,0.17035 1.04855,0.25247 0.43708,0.082 0.93968,0.20648 1.11685,0.27642 0.17718,0.0698 0.30973,0.17782 0.29456,0.23977 -0.0156,0.0619 -0.19783,0.10159 -0.40594,0.0882 -0.26657,-0.016 -0.36074,0.0177 -0.31886,0.11785 0.0327,0.0781 0.26021,0.14188 0.50558,0.14162 0.24534,-6.1e-4 0.43297,-0.0512 0.41686,-0.11294 -0.016,-0.0617 0.16324,-0.14159 0.39848,-0.17733 0.23526,-0.0357 0.69032,-0.0744 1.01122,-0.0858 0.50632,-0.0178 0.56214,-0.0425 0.42224,-0.18449 -0.13906,-0.14116 -0.12673,-0.14822 0.0899,-0.0514 0.13823,0.0618 0.5617,0.23842 0.94109,0.39255 0.37937,0.15415 1.1135,0.52404 1.63141,0.82193 0.51793,0.29789 1.45539,0.9518 2.08326,1.45315 0.62789,0.50134 1.5054,1.30238 1.95001,1.78007 0.44464,0.47769 1.08603,1.2491 1.42534,1.7143 0.33931,0.46518 0.84961,1.28316 1.13399,1.81769 0.28441,0.53455 0.65346,1.33271 0.82023,1.77368 0.1667,0.44098 0.38949,1.11181 0.49504,1.49074 0.15896,0.57059 0.16971,0.82687 0.0625,1.49162 -0.0711,0.44146 -0.10128,0.99139 -0.0674,1.22211 0.0341,0.23072 0.11391,0.65667 0.1774,0.94652 0.0792,0.36235 0.0728,0.52845 -0.0215,0.5315 -0.0751,0.002 -0.14161,-0.099 -0.14741,-0.22526 -0.006,-0.12639 -0.0644,-0.19691 -0.13031,-0.15677 -0.0659,0.0402 -0.12344,-0.0177 -0.12791,-0.12895 -0.005,-0.11102 -0.18038,-0.76076 -0.39078,-1.44383 -0.21035,-0.68306 -0.42522,-1.21589 -0.47744,-1.18405 -0.0523,0.0319 -0.13955,-0.0536 -0.19404,-0.18978 -0.0546,-0.13619 -0.21871,-0.383 -0.36492,-0.54842 -0.1495,-0.16913 -0.38342,-0.2969 -0.53455,-0.29199 -0.1478,0.005 -0.44134,-0.0169 -0.65227,-0.0481 -0.22988,-0.0337 -0.41861,-0.14413 -0.47102,-0.27521 -0.0618,-0.15421 -0.12433,-0.1824 -0.21249,-0.0958 -0.0883,0.0867 -0.23281,0.07 -0.49103,-0.0563 -0.20128,-0.0988 -0.5153,-0.34292 -0.6978,-0.54293 -0.24195,-0.26517 -0.35659,-0.32379 -0.42324,-0.21641 -0.0571,0.0921 0.0595,0.3229 0.31115,0.61575 0.22137,0.25768 0.44846,0.46703 0.50459,0.46519 0.0562,-9.7e-4 0.10619,0.0887 0.11153,0.20123 0.005,0.11256 0.0414,0.23158 0.0808,0.26457 0.0392,0.0329 0.17301,0.0323 0.29716,-0.002 0.12427,-0.0339 0.25935,-0.19629 0.3004,-0.36086 l 0.0748,-0.29918 0.12655,0.35902 c 0.0695,0.19748 0.20602,0.35648 0.3031,0.35329 0.0971,-0.004 0.23837,0.0898 0.31401,0.20647 0.0757,0.11675 0.12508,0.31498 0.10982,0.44053 -0.0151,0.12558 -0.0608,0.26069 -0.10113,0.30034 -0.0404,0.0395 -0.0406,0.14149 -2.4e-4,0.22634 0.0405,0.0849 0.0185,0.1561 -0.0492,0.15833 -0.0673,0.004 -0.15085,0.1273 -0.18525,0.27797 -0.0345,0.15068 -0.17156,0.30943 -0.30476,0.35275 -0.13324,0.0433 -0.23918,0.14493 -0.23545,0.22579 0.003,0.0808 -0.12007,0.22892 -0.27525,0.32901 -0.15509,0.10009 -0.35583,0.25074 -0.44606,0.33474 -0.0904,0.084 -0.31638,0.23084 -0.50254,0.32628 -0.29605,0.15179 -0.35353,0.15368 -0.45897,0.0151 -0.0662,-0.0872 -0.165,-0.33307 -0.21932,-0.5464 -0.0543,-0.21335 -0.34287,-0.65816 -0.64131,-0.98846 -0.2984,-0.3303 -0.61388,-0.76433 -0.70103,-0.96451 -0.0872,-0.20017 -0.27513,-0.46891 -0.4177,-0.59725 -0.14256,-0.12822 -0.46446,-0.47787 -0.71533,-0.77678 -0.28637,-0.34121 -0.45266,-0.46847 -0.44684,-0.34197 0.005,0.11087 -0.0489,0.17156 -0.11976,0.13496 -0.0709,-0.0365 0.002,0.12152 0.16146,0.35131 0.15982,0.22982 0.39573,0.58272 0.52424,0.78423 0.12851,0.20152 0.31845,0.4216 0.42217,0.48907 0.10374,0.0675 0.25705,0.32615 0.34078,0.57487 0.0837,0.2487 0.26727,0.53963 0.40787,0.64653 0.14057,0.10679 0.25937,0.27632 0.26398,0.37655 0.005,0.10023 0.26591,0.36296 0.58068,0.58386 0.31476,0.22089 0.57634,0.48951 0.58131,0.5969 0.005,0.10743 0.071,0.24727 0.1464,0.31078 0.0979,0.0822 0.27175,0.0509 0.60438,-0.10914 0.25681,-0.12353 0.52487,-0.22653 0.5957,-0.22884 0.0708,-0.002 0.12634,-0.0575 0.12329,-0.12243 -0.005,-0.065 0.0547,-0.087 0.12801,-0.0493 0.0771,0.0398 0.10794,0.21811 0.0729,0.42326 -0.0332,0.195 -0.15622,0.68452 -0.27334,1.08784 -0.11711,0.40333 -0.3567,0.91404 -0.53255,1.13489 -0.17584,0.22087 -0.52742,0.71008 -0.78128,1.08715 -0.25385,0.37707 -0.54533,0.90565 -0.64771,1.17461 -0.1024,0.26898 -0.14365,0.46314 -0.0918,0.43144 0.0519,-0.0317 0.0827,0.14411 0.068,0.39056 -0.0144,0.24647 0.0278,0.49325 0.093,0.54837 0.0655,0.055 0.0953,0.35393 0.0658,0.66406 -0.0471,0.50046 -0.1353,0.64481 -0.77999,1.28362 -0.65531,0.64919 -0.72445,0.76509 -0.70526,1.18188 0.0192,0.40906 -0.0276,0.49184 -0.40398,0.72136 -0.23392,0.1426 -0.39574,0.28409 -0.35963,0.31442 0.0361,0.0302 -0.003,0.19004 -0.0883,0.35486 -0.0846,0.16483 -0.44665,0.57132 -0.80433,0.90331 -0.35767,0.33201 -0.8316,0.67969 -1.05313,0.77262 -0.22152,0.0929 -0.59347,0.23717 -0.82654,0.32054 -0.23306,0.0833 -0.54053,0.1801 -0.68332,0.21509 -0.14273,0.035 -0.29944,0.01 -0.34825,-0.0558 z m -1.11587,-17.65808 c 0.003,-0.0769 0.008,-0.26567 0.0115,-0.41941 0.005,-0.21887 0.081,-0.28991 0.35243,-0.32716 0.19068,-0.0262 0.58099,0.0314 0.86737,0.12808 0.36767,0.12403 0.84098,0.16293 1.61056,0.13225 0.59945,-0.0244 1.14031,-0.0934 1.20188,-0.15384 0.0617,-0.0604 0.1064,-0.39079 0.0992,-0.73401 -0.007,-0.34323 -0.0555,-0.66001 -0.10769,-0.70395 -0.0525,-0.0438 -0.25605,-0.0185 -0.45277,0.0565 -0.19674,0.0751 -0.38816,0.0955 -0.42538,0.0456 -0.0373,-0.05 -0.31547,-0.0743 -0.61828,-0.0541 -0.30287,0.0208 -0.54928,0.0876 -0.5476,0.14901 0.003,0.0613 -0.11942,-0.0477 -0.2694,-0.24262 -0.14984,-0.19486 -0.32821,-0.35245 -0.3964,-0.35022 -0.0683,0.004 -0.0955,-0.0725 -0.061,-0.16562 0.0346,-0.0932 0.0145,-0.16796 -0.0475,-0.16609 -0.0606,0.002 -0.13335,-0.10867 -0.1613,-0.24617 -0.0365,-0.17945 -0.14722,-0.25665 -0.3932,-0.27417 -0.23265,-0.0172 -0.32943,0.0227 -0.30208,0.12162 0.0219,0.0802 -0.0244,0.13721 -0.10171,0.12657 -0.0839,-0.0111 -0.11233,0.0688 -0.0694,0.19657 0.0402,0.1189 0.11456,0.19064 0.16537,0.15963 0.051,-0.0309 0.17177,0.024 0.26855,0.12238 0.13748,0.13966 0.14284,0.1902 0.0245,0.23079 -0.0833,0.0287 -0.14815,0.1231 -0.14412,0.21005 0.004,0.0869 -0.0618,0.15853 -0.14651,0.15907 -0.0846,-5.6e-4 -0.32561,-0.12274 -0.53564,-0.27412 -0.21004,-0.15133 -0.29717,-0.23967 -0.19364,-0.19636 0.10359,0.0434 0.007,-0.0861 -0.21691,-0.28794 -0.22283,-0.20168 -0.42938,-0.46557 -0.45899,-0.58641 -0.0328,-0.13368 -0.32383,-0.33718 -0.74329,-0.51976 -0.37918,-0.16502 -0.73545,-0.36593 -0.79172,-0.44643 -0.0563,-0.0804 -0.18247,-0.11538 -0.28046,-0.0774 -0.098,0.0379 -0.18075,0.0138 -0.18386,-0.0546 -0.003,-0.0679 -0.0887,-0.12075 -0.18997,-0.1176 -0.10147,0.004 -0.18044,0.0688 -0.17569,0.14542 0.005,0.0767 0.23261,0.2955 0.50637,0.48632 0.27377,0.19076 0.58442,0.34405 0.69035,0.34058 0.10576,-0.004 0.19489,0.0441 0.19772,0.10536 0.003,0.0611 0.082,0.10916 0.17583,0.10606 0.0937,-9.6e-4 0.306,0.0932 0.47135,0.21398 0.29198,0.21324 0.2929,0.2179 0.0316,0.16204 -0.14808,-0.0317 -0.30234,-0.004 -0.34289,0.0612 -0.0403,0.0652 -0.0142,0.11703 0.0565,0.11438 0.0716,-0.002 0.13365,0.0715 0.1379,0.16421 0.005,0.0927 -0.0941,0.25416 -0.21879,0.35883 -0.12722,0.10695 -0.19157,0.26404 -0.14669,0.35837 0.0594,0.12512 0.0236,0.15049 -0.14074,0.0994 -0.12133,-0.0377 -0.35505,-0.0944 -0.51943,-0.1263 -0.16442,-0.0318 -0.30098,-0.10254 -0.30349,-0.15722 -0.003,-0.0549 0.14745,-0.10517 0.33326,-0.11223 0.18583,-0.007 0.41045,-0.0582 0.49915,-0.11351 0.0888,-0.0554 0.13732,-0.19291 0.10803,-0.30553 -0.0306,-0.11779 -0.34553,-0.32478 -0.7422,-0.48765 -0.37893,-0.15554 -0.87423,-0.43014 -1.10066,-0.61013 -0.22644,-0.18001 -0.48868,-0.32476 -0.58278,-0.32167 -0.0942,0.002 -0.30436,0.10856 -0.46722,0.23433 -0.2229,0.17215 -0.40768,0.21604 -0.74683,0.17743 -0.43628,-0.0494 -0.4502,-0.04 -0.43493,0.29049 0.0118,0.24533 -0.0538,0.36438 -0.23,0.42173 -0.13514,0.0439 -0.32521,0.20038 -0.42238,0.34761 -0.0972,0.14721 -0.15933,0.33401 -0.13805,0.4151 0.0212,0.0809 0.004,0.25361 -0.0389,0.38338 -0.0422,0.12984 -0.19794,0.29164 -0.34599,0.35958 -0.14806,0.0678 -0.43297,0.17452 -0.63314,0.23686 -0.2002,0.0623 -0.36058,0.18743 -0.35641,0.27801 0.005,0.11521 0.15538,0.16435 0.4998,0.16367 0.27076,-1e-4 0.57226,-0.0672 0.67005,-0.14812 0.0979,-0.0809 0.35357,-0.23558 0.56838,-0.3437 0.21478,-0.10814 0.9447,-0.28584 1.62199,-0.39492 0.67728,-0.10915 1.31101,-0.17365 1.40832,-0.14342 0.0973,0.0301 0.14695,0.10303 0.11037,0.16206 -0.0366,0.0589 0.003,0.17804 0.0895,0.26474 0.12227,0.12356 0.12402,0.19551 0.008,0.33281 -0.0811,0.0964 -0.12522,0.18818 -0.0981,0.20408 0.0271,0.0159 0.20709,0.0841 0.39954,0.15194 0.19243,0.0676 0.54033,0.11676 0.77313,0.10908 0.29017,-0.0101 0.47479,0.0546 0.58702,0.2043 0.0903,0.11996 0.27495,0.21626 0.41087,0.214 0.13592,-0.002 0.38864,0.0631 0.56166,0.14524 0.17301,0.0822 0.35608,0.1499 0.40688,0.15032 0.0507,5.6e-4 0.0948,-0.0619 0.098,-0.13893 z m 4.66932,-3.56635 c 0.031,-0.0499 0.0128,-0.15123 -0.0432,-0.2251 -0.0547,-0.0738 -0.40577,-0.29873 -0.77991,-0.49996 -0.37412,-0.20119 -0.7272,-0.36431 -0.78462,-0.36241 -0.0574,0.002 -0.21687,0.0632 -0.35436,0.13602 -0.20519,0.10881 -0.27466,0.0961 -0.38772,-0.0711 -0.0757,-0.11209 -0.11448,-0.22603 -0.0857,-0.25327 0.0286,-0.0274 -0.11374,-0.0839 -0.31594,-0.12603 -0.24846,-0.0516 -0.39727,-0.0309 -0.45863,0.0627 -0.05,0.0768 -0.14216,0.34025 -0.20515,0.58585 -0.10448,0.40813 -0.0891,0.46377 0.17897,0.6459 0.20955,0.14239 0.39893,0.17607 0.66335,0.11792 0.20356,-0.0448 0.51413,-0.114 0.69019,-0.15421 0.18329,-0.0419 0.47431,-0.004 0.68097,0.0893 0.19846,0.0892 0.53739,0.15826 0.75316,0.15358 0.21579,-0.005 0.41774,-0.0492 0.44881,-0.0994 z m -27.95989,8.41344 c -0.0145,-0.25708 -0.0778,-0.49447 -0.142,-0.5275 -0.064,-0.0328 -0.14138,0.0293 -0.17174,0.13871 -0.0304,0.10922 -0.0401,-0.0784 -0.022,-0.417 0.0183,-0.33869 0.0976,-1.0453 0.17686,-1.57023 0.0786,-0.52502 0.30999,-1.48801 0.51407,-2.14004 0.20409,-0.652 0.52033,-1.49209 0.7028,-1.86682 0.18243,-0.37472 0.30921,-0.55487 0.28175,-0.40033 -0.0282,0.16251 0.0563,0.0652 0.2015,-0.23008 0.13831,-0.2811 0.3197,-0.57977 0.4032,-0.66372 0.0836,-0.0839 0.14867,-0.21984 0.14501,-0.30197 -0.003,-0.0823 0.15676,-0.43413 0.35674,-0.78217 0.19999,-0.34806 0.4426,-0.6634 0.53913,-0.7008 0.0966,-0.0374 0.20076,-0.0469 0.23158,-0.0208 0.0308,0.0259 -0.003,0.15817 -0.0755,0.29406 -0.0725,0.13582 -0.10329,0.27076 -0.0688,0.29986 0.0347,0.0292 0.20019,-0.14404 0.36791,-0.38477 0.30236,-0.43409 0.30439,-0.43492 0.24471,-0.10055 -0.0331,0.18546 -0.0803,0.45101 -0.10474,0.59009 -0.0246,0.13905 0.007,0.25123 0.0674,0.24921 0.0615,-0.002 0.14696,0.0696 0.1896,0.15946 0.0427,0.0899 0.005,0.37381 -0.081,0.63129 -0.0871,0.25749 -0.15731,0.48995 -0.15612,0.51652 2.5e-4,0.0266 0.0561,0.0155 0.1219,-0.0244 0.0692,-0.0422 0.12498,0.0596 0.1323,0.24051 0.008,0.17243 -0.0254,0.36506 -0.0724,0.42802 -0.0468,0.063 -0.26341,0.12303 -0.48129,0.13354 l -0.39612,0.0191 0.28314,-0.50722 c 0.15574,-0.27897 0.25817,-0.5282 0.22763,-0.55383 -0.0304,-0.0256 -0.11366,0.0626 -0.18485,0.19599 -0.0712,0.13347 -0.27381,0.29814 -0.45044,0.36596 -0.25946,0.0998 -0.28558,0.14246 -0.13603,0.22294 0.14112,0.0762 0.11496,0.0954 -0.10984,0.081 -0.16392,-0.0112 -0.31854,0.0512 -0.34805,0.13835 -0.0324,0.0959 -3.8e-4,0.12492 0.0822,0.0745 0.0745,-0.0454 0.13669,-0.0512 0.13841,-0.0133 0.003,0.0384 -0.047,0.16356 -0.10784,0.27831 -0.0816,0.15328 -0.0642,0.22323 0.0658,0.2636 0.0973,0.0301 0.20101,-0.005 0.23045,-0.0802 0.0365,-0.0918 0.059,-0.086 0.0703,0.0182 0.009,0.0845 -0.15851,0.34431 -0.3728,0.57749 -0.21428,0.23317 -0.45222,0.40726 -0.52877,0.38689 -0.0765,-0.0204 -0.21837,0.1171 -0.31519,0.30552 -0.0968,0.18843 -0.17355,0.39731 -0.17049,0.46421 0.003,0.0669 -0.0967,0.26125 -0.22182,0.43186 -0.12514,0.17063 -0.28188,0.56344 -0.3484,0.87291 -0.0666,0.30948 -0.23623,0.87676 -0.3771,1.26061 -0.14086,0.38386 -0.24831,0.86761 -0.23875,1.075 0.01,0.20739 0.0751,0.42565 0.14592,0.48505 0.0859,0.0723 0.072,0.18175 -0.0426,0.33099 -0.15929,0.20798 -0.17261,0.19143 -0.19631,-0.2444 z m 5.88445,-11.11142 c -0.006,-0.12875 0.0393,-0.42554 0.0993,-0.65952 0.0602,-0.23402 0.21424,-0.49002 0.34234,-0.56891 0.12807,-0.0789 0.22855,-0.23713 0.22328,-0.35167 -0.007,-0.14236 0.0518,-0.1892 0.18416,-0.14805 0.11024,0.0342 0.1595,0.0145 0.11431,-0.0466 -0.0438,-0.0587 0.0444,-0.2286 0.19587,-0.37729 0.15142,-0.14866 0.66367,-0.49442 1.13827,-0.76833 0.47462,-0.27392 1.203,-0.65024 1.61863,-0.83629 0.4156,-0.18603 1.20897,-0.49203 1.76301,-0.67997 0.55405,-0.18797 1.04212,-0.31253 1.08458,-0.27685 0.0425,0.0357 -0.0286,0.0719 -0.15792,0.0804 -0.22471,0.0145 -0.22405,0.0194 0.015,0.1032 0.17877,0.0629 0.19569,0.0919 0.0593,0.10208 -0.10515,0.009 -0.36143,0.15268 -0.56972,0.32206 -0.20831,0.16935 -0.37566,0.37498 -0.37188,0.45689 0.003,0.0819 -0.2765,0.3097 -0.62278,0.50622 -0.3463,0.19651 -0.8206,0.42023 -1.05393,0.49719 -0.23338,0.077 -0.55718,0.26034 -0.71962,0.40751 -0.16247,0.14717 -0.53576,0.402 -0.82959,0.56628 -0.29385,0.16427 -0.8127,0.62247 -1.153,1.01824 -0.34032,0.39579 -0.61707,0.75624 -0.61502,0.80102 0.002,0.045 -0.16229,0.0825 -0.36533,0.0839 -0.28968,0.002 -0.3713,-0.0473 -0.37918,-0.23155 z"
       id="path8070-4-5-4-9-9-9"
       sodipodi:nodetypes="csssssssssssscsscscssccsscssscssscsccsssssscscssccsccssssscssssssscssssssscssscssccccssscssssssccssccssssssscccsssccscccccsscsccscsscscsscsccsccscscssccsssscscsccsccsscsscsccsssssssssscsscsccssssscsssssscsscscscscsccsscssssssssssscsssssssssscssssssscccsssscsssscccsccccssssccscsssscccscsscssssssssscssccsssccssscccsssscscsssscssscsssssccsccccscccscccssssccssssssscccscssssscssscsssscscccssccsssssccssssccssscssssssccccssssssssccscscssssscccccs"
       inkscape:export-filename="Downloads\Logo\Atlas\ATLASa.svg"
       inkscape:export-xdpi="96"
       inkscape:export-ydpi="96" /><path
       style="fill:#f5ebe0;fill-opacity:1;stroke-width:0.264583"
       d="m 655.0658,355.74214 c -9.51475,-0.4286 -9.65597,-0.91694 -0.39227,-1.35651 5.08943,-0.24149 6.24093,-0.37536 7.8596,-0.91377 1.04309,-0.34697 2.14442,-0.63084 2.4474,-0.63084 0.30298,0 0.55087,-0.10455 0.55087,-0.23234 0,-0.31273 -4.77143,-3.88419 -5.49683,-4.11442 -0.70634,-0.22418 -1.64692,-1.37768 -1.64692,-2.01972 0,-1.55214 5.20845,-3.14745 7.8255,-2.39689 0.78694,0.22569 4.34533,2.86937 4.34533,3.22834 0,0.46087 -0.88091,0.80059 -2.45794,0.94784 -1.48565,0.13873 -1.83329,0.0841 -2.50431,-0.39373 -1.26622,-0.90163 -3.769,-1.28573 -3.769,-0.57844 0,0.11268 0.56555,0.34701 1.25677,0.52074 1.54366,0.38796 2.05136,0.82875 2.90837,2.52508 0.3676,0.7276 0.95005,1.65947 1.29432,2.07082 0.34428,0.41134 0.62634,0.94712 0.6268,1.19062 8e-4,0.40015 0.54777,0.44272 5.68862,0.44272 3.12827,0 5.68774,-0.0639 5.6877,-0.14207 -4e-5,-0.0781 -0.78112,-0.5913 -1.73573,-1.14036 -2.20077,-1.26576 -3.4664,-2.53379 -4.67633,-4.68518 -0.52748,-0.93792 -1.23533,-1.87302 -1.57301,-2.078 -0.33768,-0.20499 -1.18232,-0.85107 -1.87697,-1.43574 -0.88935,-0.74854 -1.16411,-1.12416 -0.92872,-1.26965 0.20338,-0.12569 0.59436,0.0321 0.99842,0.40298 0.80731,0.74099 1.89826,1.48448 2.17822,1.48448 0.48157,0 0.13984,-0.75379 -0.71922,-1.58642 l -0.92493,-0.89648 0.7265,-0.30628 c 1.28329,-0.54104 2.41905,-1.69142 2.5948,-2.62822 0.18123,-0.96604 -0.30001,-2.26862 -0.91195,-2.46841 -0.28939,-0.0945 -0.32732,0.0894 -0.18018,0.87378 0.26019,1.38689 -0.241,2.4328 -1.46498,3.05723 -1.28684,0.6565 -1.35786,0.65128 -2.3358,-0.1716 l -0.81623,-0.68681 0.64433,-0.76575 c 0.35439,-0.42116 0.77832,-1.41112 0.94207,-2.1999 0.40252,-1.93893 1.22574,-2.80447 2.66735,-2.80447 1.04084,0 1.09077,0.0354 0.93364,0.66145 0.8228,-0.39983 1.55803,1.17359 2.47267,1.19067 1.33864,0 3.19222,-1.26021 3.19222,-2.17033 0,-0.26983 0.35719,-1.19818 0.79375,-2.063 0.78037,-1.54589 1.08859,-3.75531 0.5687,-4.07662 -0.12377,-0.0765 -1.01674,-0.28927 -1.98437,-0.47282 -2.0898,-0.39643 -2.3479,-0.94005 -0.50255,-1.05846 l 1.25677,-0.0807 -1.30909,-0.9086 c -1.45541,-1.01015 -1.21643,-1.40015 0.40886,-0.66725 1.42353,0.64192 1.58347,0.30393 0.42001,-0.88755 -0.53624,-0.54917 -0.97499,-1.1423 -0.97499,-1.31806 0,-0.67794 0.95422,-0.27031 1.88422,0.8049 1.13079,1.30738 1.52406,1.17782 1.02401,-0.33736 -0.26496,-0.80283 -0.36373,-1.44188 -0.0489,-1.37102 1.0254,0.23076 1.41584,1.72706 1.6386,3.03614 0,0.17626 0.32083,-0.0255 0.71295,-0.4484 0.76684,-0.827 1.11714,-0.56833 0.58081,0.42889 -0.60178,1.11889 -0.82747,2.69815 -0.86233,6.03394 -0.0302,2.89214 -0.10995,3.44844 -0.63524,4.43177 -0.33038,0.61846 -0.76617,1.12448 -0.96843,1.12448 -0.20226,0 -1.10538,0.34885 -2.00693,0.77521 -0.90155,0.42637 -2.10287,0.85355 -2.66959,0.9493 -1.02193,0.17266 -1.0304,0.18403 -1.0304,1.38435 0,0.66564 -0.19988,1.84435 -0.44419,2.61936 -0.49132,1.55867 -0.40068,1.86769 0.41914,1.42894 1.25485,-0.67158 3.46463,1.40799 3.46463,3.26049 0,0.9541 0.15404,1.26704 1.05833,2.15006 1.0337,1.00937 1.32566,1.78793 0.79375,2.11667 -0.14552,0.0899 -0.26458,0.27555 -0.26458,0.41249 0,0.48912 0.61329,0.23454 1.61491,-0.67036 1.2422,-1.12226 2.14063,-1.37501 3.46233,-0.97403 0.5545,0.16822 1.48676,0.45014 2.0717,0.62648 0.82534,0.24882 1.25041,0.25009 1.89795,0.006 1.24193,-0.46878 1.53644,-0.0765 1.53644,2.04668 v 1.77903 l 3.14097,0.16889 c 3.86781,0.20797 5.08882,0.5439 2.93856,0.80848 -5.12006,0.63001 -30.92418,0.89016 -41.41596,0.41756 z m 33.01019,-1.90893 c 0.23141,-0.18191 0.5003,-0.59863 0.59757,-0.92604 0.16042,-0.54007 0.0882,-0.59532 -0.77819,-0.59532 -1.84895,0 -6.75355,1.25155 -6.75355,1.72334 0,0.30687 6.52878,0.11669 6.93417,-0.20198 z m -22.7738,-12.2423 c -0.63539,-0.36322 -1.60502,-1.01664 -2.15474,-1.45202 -0.86633,-0.68615 -1.21764,-0.79161 -2.63686,-0.79161 -1.21402,0 -2.0935,-0.19569 -3.40151,-0.75684 -0.97028,-0.41627 -1.96301,-0.82562 -2.20607,-0.90965 -0.30719,-0.10622 -0.49787,-0.6005 -0.62539,-1.62108 -0.22583,-1.80752 -0.007,-3.05138 0.82439,-4.69268 0.35189,-0.69441 0.63981,-1.44315 0.63981,-1.66384 0,-0.22069 -0.58693,-1.26162 -1.30429,-2.31315 -0.71736,-1.05156 -1.23497,-2.02407 -1.15024,-2.16118 0.14372,-0.23253 0.33388,-0.0437 1.27932,1.27015 0.57462,0.79858 0.72324,0.31765 0.2938,-0.9507 -0.38522,-1.13769 -0.35205,-1.68634 0.0856,-1.41587 0.12427,0.0768 0.30379,0.4941 0.39895,0.92733 0.29977,1.36488 0.76532,1.29135 0.57585,-0.0909 -0.21844,-1.59371 0.24399,-1.62348 0.64237,-0.0414 0.34686,1.37751 0.71118,1.53164 0.93813,0.39688 0.28301,-1.41505 0.49147,-0.84277 0.4094,1.12389 -0.044,1.05536 -0.26708,2.32495 -0.49565,2.82132 -0.31651,0.68735 -0.37506,1.34968 -0.24561,2.7782 0.13177,1.45411 0.0803,2.00373 -0.22904,2.44537 -0.18948,1.64229 0.91444,2.98468 3.08583,1.96012 0.35853,-0.28202 0.94161,-0.58548 1.29572,-0.67436 0.54019,-0.13558 0.69287,-0.0317 0.94832,0.64506 0.49074,1.3001 0.85869,0.97434 0.69465,-0.61501 -0.12524,-1.21351 -0.0643,-1.50404 0.416,-1.98437 0.31724,-0.31724 0.90012,-0.56272 1.33616,-0.56272 2.13165,0 4.31006,4.02935 3.08386,5.70412 -0.29904,0.40844 -0.66468,0.50494 -1.78593,0.47136 l -1.40992,-0.0422 0.79376,0.4101 c 0.75898,0.39214 2.51354,2.00258 2.51354,2.30707 0,0.38333 -1.57982,0.0678 -2.61046,-0.52138 z"
       id="path145-3-6-3-0-3-3-8-1"
       sodipodi:nodetypes="cssssssssscsssscsssssssssscssscsscsssccssssccsssssssccscssssscssscsssscscssccssssssssssscsssssscssscssccssssssccssss" /><text
       xml:space="preserve"
       style="font-size:15.743px;fill:#f0f0f0;fill-opacity:1;stroke-width:1.31191"
       x="524.50903"
       y="449.68521"
       id="text6450-1-4-2-7-3-6"
       transform="scale(1.2232011,0.81752706)"><tspan
         sodipodi:role="line"
         id="tspan6448-6-8-0-0-7-0"
         style="font-style:normal;font-variant:normal;font-weight:bold;font-stretch:normal;font-family:'Palatino Linotype';-inkscape-font-specification:'Palatino Linotype Bold';fill:#f0f0f0;fill-opacity:1;stroke-width:1.31191"
         x="524.50903"
         y="449.68521">ATLAS</tspan></text></g></svg>
